<svg xmlns="http://www.w3.org/2000/svg" viewBox="0 0 1024 1024"><path class="a" d="M912.86,614.69a111.68,111.68,0,0,0-137,20.2L654.18,564.64a152.49,152.49,0,0,0,1.53-106.17l120.14-69.36a111.5,111.5,0,1,0-25.5-44.17L630.78,414a152.6,152.6,0,0,0-93.28-54.84V222.05a111.5,111.5,0,1,0-51,0V359.14A152.6,152.6,0,0,0,393.22,414l-119.57-69a111.5,111.5,0,1,0-25.5,44.17l120.14,69.36a152.49,152.49,0,0,0,1.53,106.17L248.15,634.89a111.5,111.5,0,1,0,25.5,44.17L396,608.4a152.53,152.53,0,0,0,90.48,51.46V802a111.5,111.5,0,1,0,51,0V659.86A152.53,152.53,0,0,0,628,608.4l122.37,70.66a111.5,111.5,0,1,0,162.51-64.37Zm-86-354.33A60.5,60.5,0,1,1,804.72,343,60.57,60.57,0,0,1,826.86,260.36ZM219.28,343a60.5,60.5,0,1,1-22.14-82.64A60.56,60.56,0,0,1,219.28,343ZM197.14,763.64A60.5,60.5,0,1,1,219.28,681,60.57,60.57,0,0,1,197.14,763.64ZM451.5,113.5A60.5,60.5,0,1,1,512,174,60.57,60.57,0,0,1,451.5,113.5Zm121,797A60.5,60.5,0,1,1,512,850,60.57,60.57,0,0,1,572.5,910.5ZM512,611A101.5,101.5,0,1,1,613.5,509.5,101.61,101.61,0,0,1,512,611ZM909.51,741.5a60.5,60.5,0,1,1-22.15-82.64A60.57,60.57,0,0,1,909.51,741.5Z"/></svg>