<svg xmlns="http://www.w3.org/2000/svg" viewBox="0 0 1024 1024"><path class="a" d="M512,537.62c-78,0-141.5-63.48-141.5-141.5S434,254.62,512,254.62s141.5,63.48,141.5,141.5S590,537.62,512,537.62Zm0-232a90.5,90.5,0,1,0,90.5,90.5A90.6,90.6,0,0,0,512,305.62Z"/><path class="a" d="M972.35,851c-20.52-10.3-49.54-19.67-86.26-27.84-58.64-13.06-136-22.78-221.88-28.05,15.93-16.49,32.4-34.11,48.92-52.59C838.28,602.56,901.74,486,901.74,396.12a389.74,389.74,0,1,0-779.48,0c0,89.89,63.46,206.44,188.61,346.43,16.52,18.49,33,36.1,48.92,52.59-86,5.28-163.52,15-222.19,28.11-36.63,8.18-65.58,17.54-86,27.83-28.57,14.36-43,32.21-43,53,0,9.29,3.15,23.19,18.16,36.69,8.44,7.6,19.8,14.45,34.73,20.94,25.85,11.26,62.19,21.24,108,29.67,91.75,16.9,213.43,26.2,342.61,26.2s250.86-9.3,342.61-26.2c45.81-8.43,82.15-18.41,108-29.67,14.93-6.49,26.29-13.34,34.73-20.94,15-13.5,18.16-27.4,18.16-36.69C1015.5,883.27,1001,865.41,972.35,851ZM173.26,396.12a338.74,338.74,0,0,1,677.48,0c0,75.79-60.6,183.68-175.24,312C609.19,782.35,542.12,843.68,512,870.33c-30.12-26.65-97.19-88-163.5-162.2C233.86,579.8,173.26,471.91,173.26,396.12ZM827.55,944.38C741,958.72,629,966.62,512,966.62s-229-7.9-315.55-22.24c-94.68-15.69-125.2-33.1-134.21-40.26,7.9-6.27,32.39-20.41,102.48-34.48,65.37-13.11,149.43-22,243.55-25.92,49,47.48,84.94,77.91,87.3,79.9a25.5,25.5,0,0,0,32.86,0c2.36-2,38.35-32.42,87.3-79.9,94,3.86,177.9,12.78,243.24,25.86,70.32,14.09,94.87,28.26,102.79,34.54C952.75,911.28,922.23,928.69,827.55,944.38Z"/></svg>