<svg xmlns="http://www.w3.org/2000/svg" viewBox="0 0 1024 1024"><path class="a" d="M845.91,486.77H391.32L519,360.55a25,25,0,0,0,0-35.66,25.71,25.71,0,0,0-36.06,0L311.7,494.18l-.43.45-.4.42c-.27.29-.53.58-.78.88v0a25,25,0,0,0,1.62,33.89l.87.82L482.93,699.11a25.71,25.71,0,0,0,36.06,0,25,25,0,0,0,0-35.66L391.32,537.2H845.91a25.22,25.22,0,1,0,0-50.43Z"/><path class="a" d="M704.1,1019.59h-277c-73.24,0-142.09-28.21-193.87-79.44s-80.3-119.33-80.3-191.78V275.63c0-72.45,28.52-140.55,80.3-191.78S353.84,4.41,427.08,4.41H690.91a25.22,25.22,0,1,1,0,50.43H427.08a222.91,222.91,0,0,0-157.8,64.66,218.14,218.14,0,0,0-65.37,156.13V748.37A218.14,218.14,0,0,0,269.28,904.5a222.91,222.91,0,0,0,157.8,64.66h277a25.22,25.22,0,1,1,0,50.43Z"/></svg>