<svg xmlns="http://www.w3.org/2000/svg" viewBox="0 0 1024 1024"><path class="a" d="M997.06,768.82H26.94A25.37,25.37,0,0,1,1.56,743.45V72.82A25.37,25.37,0,0,1,26.94,47.45H997.06a25.37,25.37,0,0,1,25.37,25.37V743.45A25.37,25.37,0,0,1,997.06,768.82ZM52.31,718.08H971.69V98.19H52.31Z"/><path class="a" d="M419.59,592.78a25.38,25.38,0,0,1-25.37-25.37V255.67a25.37,25.37,0,0,1,39.68-20.95L667.22,394a25.38,25.38,0,0,1-.42,42.2L433.47,588.65A25.39,25.39,0,0,1,419.59,592.78ZM445,303.71V520.52l162.27-106Z"/><path class="a" d="M293.1,907.4H27a25.38,25.38,0,1,1,0-50.75H293.1a25.38,25.38,0,0,1,0,50.75Z"/><path class="a" d="M997.06,907.4H471.76a25.38,25.38,0,0,1,0-50.75h525.3a25.38,25.38,0,0,1,0,50.75Z"/><path class="a" d="M373.2,976.55a25.37,25.37,0,0,1-25.38-25.37V811.88a25.38,25.38,0,0,1,50.75,0v139.3A25.37,25.37,0,0,1,373.2,976.55Z"/></svg>