<svg id="Layer_1" data-name="Layer 1" xmlns="http://www.w3.org/2000/svg" viewBox="0 0 554.2 594.02"><path class="cls-1" d="M174.78 304.26c.79-3.59 1.87-7.06 2.36-10.71.12-.9.29-1.79.46-2.69.24-1.3 0-1.93-1.37-2-1.88-.06-3.76-.17-5.65-.18s-3.49-.09-5.23-.11c-1.13 0-1.55.21-1.83 1.36s-.39 2-.64 3c-.93 3.7-1.82 7.53-2.41 11.3-.55 3.5-1 6.91-1.83 10.36-.58 2.5-.94 5.06-1.39 7.59-.18 1-.26 2.28-1.29 2.88-2.31 1.33-3-1.89-3.56-3.34-.67-1.76-7.81-24.95-8.32-26.89-.42-1.6-.65-3.32-1.23-4.88-.66-1.76-3.68-1.06-5.27-1.09-1.75 0-3.51-.07-5.26-.07-1 0-1.54-.07-2 .9s-.58 1.92-.9 2.83c-.6 1.72-8.07 28.87-8.81 30.9a2.35 2.35 0 01-4.14.65 8 8 0 01-.82-3.09c-.16-.74-.35-1.48-.51-2.22-1.64-7.55-2.55-15.2-4-22.78-.32-1.68-.86-3.29-1.21-5-.14-.68-.15-1.91-.9-2.28s-2.07-.07-2.85-.09a36 36 0 00-5.59 0c-.73.09-1.45.24-2.18.31-.92.09-2.93-.28-3.23.94-.19.77.36 2 .56 2.74s.43 1.53.63 2.3c.5 1.91.89 3.86 1.3 5.79.77 3.72 1.5 7.45 2.28 11.17 1.53 7.29 2.61 14.77 4.66 21.95 1 3.42 1.85 6.8 2.59 10.28.41 1.9.79 3.79 1.06 5.71.2 1.46.07 3.58 1.87 3.75s3.47.42 5.17.46c1.88.05 3.72-.28 5.58-.33 1.08 0 1.6-.18 1.94-1.26.3-.92.54-1.85.79-2.79.49-1.81 1.1-3.6 1.55-5.43.87-3.49 2.18-6.75 3.25-10.16 1.15-3.62 2.26-7.25 3.37-10.88l2.25-7.35c.32-1 .58-2.21 1.75-2.62 2.45-.85 3 2.23 3.55 3.86 2.22 7 4.14 14 6.67 20.84 1.3 3.52 2.29 7.23 3.28 10.85.37 1.34.61 4.45 2 5a10.14 10.14 0 002.87.1l2.51.05c1.79 0 3.53-.24 5.32-.31 1 0 1.61.17 2-.82s.48-2.05.78-3c1.05-3.45 1.94-7 2.72-10.53s1.38-7.32 2.15-11c.73-3.48 1.55-6.93 2.32-10.4s1.62-6.7 2.16-10.11a2.28 2.28 0 01.39.06c-.64 0-.3-.61-.23-1.05.15-.73.33-1.62.51-2.47zM234.4 348.69c-.77-3.53-2.08-6.94-3.19-10.37-.88-2.74-1.73-5.5-2.61-8.25-1.84-5.71-3.45-11.5-5.69-17.06-1.46-3.65-2.46-7.59-3.55-11.36-1-3.32-2-6.56-3.12-9.81-.31-.86-.45-1.53-.74-2.39s-2.21-.57-3.13-.57h-8.07c-1.29 0-2.12-.19-2.53 1.13s-3.84 11.81-4.84 15.59c-1 3.61-2.12 7.07-3.34 10.6-2.42 7-4.67 14.11-7 21.16-1.25 3.72-2.15 7.54-3.47 11.25-.45 1.29-2.25 4.43-.27 5a19.3 19.3 0 003 .17c1 .1 1.91.18 2.88.19a40.22 40.22 0 005.48.15c1.93-.27 2.05-3.31 2.4-4.86.39-1.77.62-4 1.63-5.49 1.32-2 3.54-1.7 5.65-1.57 3.5.21 7 .21 10.49.18 2.14 0 4.38-.21 5.47 2a29.64 29.64 0 011.44 4.84c.41 1.43.65 4.52 2.29 4.92a9.93 9.93 0 002.55-.07c1 0 2-.08 2.94-.08h2.89c.8 0 2.29.3 3-.1 1.25-.69-.3-4.02-.56-5.2zm-19.55-18.62c-1 1.44-3.6.9-5.15 1s-3 .16-4.58.15a2.46 2.46 0 01-2.36-1.05c-.63-1.05-.11-2.18.16-3.25.33-1.35 3.23-12.77 4.14-13.95 1.34-1.72 3.32-.52 3.87 1.14s.85 3.13 1.27 4.68c.53 2 1.09 3.9 1.77 5.81.53 1.45 1.94 4.03.88 5.47zM262.55 339.17c0-6.93.25-13.86.27-20.78 0-3.45.31-6.92 0-10.36s.06-6.92.1-10.42v-4.95a14.53 14.53 0 000-2.72c-.27-1.31-1.27-1.37-2.4-1.35-1.66 0-3.32.15-5 .14-1.51 0-3.62-.5-5.07-.12-1.71.44-1.13 3.39-1.2 4.77-.1 1.74-.15 3.48-.11 5.22.06 3.32.14 6.59 0 9.91-.34 6.81.29 13.67.13 20.5s0 13.81-.24 20.73c-.06 1.54-.63 3.85 1.45 4.08a22.43 22.43 0 002.46 0h7.25c6.86-.14 13.7.16 20.56.07 1.58 0 3.16-.18 4.74-.23.65 0 2 .23 2.55-.19s.32-1.95.33-2.67c0-1.53.14-3 .18-4.58a7.27 7.27 0 00-.14-2.91c-.5-1.09-1.71-.84-2.71-.79a95.75 95.75 0 01-9.88.1c-3.25-.17-6.6.23-9.84-.1a3.56 3.56 0 01-3.43-3.35zM331.76 300.06c1.63 0 4 .64 4.12-1.54.1-1.73.06-3.49.11-5.22s.69-4.64-1.71-4.69c-1.71 0-3.38.37-5.08.49-3.85.28-7.86-.05-11.72-.16-3.31-.1-6.62-.16-9.93-.27-3.75-.11-7.44.28-11.18.28l-4.84.05a8.14 8.14 0 00-3 .16c-1.1.48-.8 1.75-.76 2.74.06 1.54.26 3.06.34 4.6.05 1-.21 2.29.28 3.16s1.7.67 2.65.63c3.4-.13 6.78-.14 10.19-.11 2 0 3.71 1 3.89 3.22.13 1.7 0 3.47 0 5.17 0 3.74 0 7.5.1 11.24.09 3.36.09 6.72.06 10.09 0 3.82.21 7.69-.07 11.51a95.89 95.89 0 00.11 10c0 .88-.19 2 .83 2.38a8.53 8.53 0 002.67 0c1.8 0 3.6 0 5.39-.11 1.25-.06 4 .42 4.38-1a14.15 14.15 0 00.07-2.69c0-.75.1-1.49.14-2.24.17-3.74-.08-7.53-.12-11.28v-10.22c.06-3.72.36-7.48.16-11.2-.17-3.41-.09-6.78 0-10.2 0-2 .27-4.16 2.56-4.82 1.56-.45 3.54-.1 5.16-.07s3.44.09 5.2.1zM394 316.11c0-6.33-.45-12.78-4-18.26a18.8 18.8 0 00-7.07-6.35 24.07 24.07 0 00-8.19-3.15c-6.16-.9-13.72-.38-19.13 3-5.71 3.55-9.16 9.8-10.46 16.28-1.16 5.75-.58 11.39-.45 17.17.14 6.25.26 12.74 3.32 18.38a22.71 22.71 0 006.5 7.45c2.77 2 5.84 2.71 9.11 3.48a21.79 21.79 0 0010.37.32 40.32 40.32 0 007.68-2c3-1.35 5.62-4.38 7.53-7a27.52 27.52 0 004.16-9.41c1.63-6.6.63-13.28.63-19.91zm-13.24 5.36h-.39c.61-.09.34.63.31 1.05-.06.82-.09 1.63-.11 2.45-.05 2.07.06 4.13 0 6.2a13.89 13.89 0 01-4 9.52 10.11 10.11 0 01-10.57 2.7c-3.56-1.16-5.58-4.08-6.6-7.53-1.21-4.11-1-8.25-1.21-12.47a75.06 75.06 0 01-.14-10.17c.36-4 1.21-8.48 4.15-11.43 2.73-2.76 7.32-3.33 10.91-2.13 4.11 1.37 6 5.24 6.89 9.21a40.71 40.71 0 01.73 12.6zM444.93 323.7c-1.64.5-2.48-1-3.23-2.16s-1.42-2.12-2.12-3.18c-1.65-2.52-3.11-5.15-4.77-7.66-1.51-2.29-3-4.68-4.68-6.83a37 37 0 01-4.18-6.46 50.71 50.71 0 00-4.34-6.5c-.42-.58-.81-1.56-1.49-1.85A6.84 6.84 0 00418 289c-1.18 0-2.37-.05-3.56-.08s-3.34-.45-4.24.13-.62 3-.69 4.09a45.44 45.44 0 000 7.56c.25 2.61.18 5.26.23 7.88.06 2.82-.33 5.55-.42 8.35s.27 5.62.25 8.44-.38 5.35-.24 8 .43 5.42.31 8.19c-.11 2.54-.1 5.07-.18 7.61 0 1.13-.36 2.71 0 3.78.56 1.7 3 1.14 4.33 1.1 1.06 0 2.11-.11 3.16-.16.71 0 1.41-.06 2.11-.07s1.9.22 2.5-.17c1-.63.51-2.8.54-3.84 0-1.19.06-2.39.07-3.59 0-2.7-.13-5.39-.16-8.09s.24-5.47.26-8.22-.31-5.5-.1-8.2a2.17 2.17 0 012.49-2.22c1.52.27 2.31 2.25 3.11 3.39 1.56 2.23 3 4.5 4.57 6.75 3 4.49 6.26 8.89 9.1 13.52q2.09 3.42 4.35 6.73c.74 1.1 1.45 2.23 2.21 3.31.88 1.27 1.69 1 3.19.91 1 0 2.08-.13 3.13-.2.62-.05 1.23-.07 1.85-.09s1.86.23 2.43-.17c.92-.65.48-2.71.47-3.7v-3.8c0-2.65-.06-5.31 0-8 .05-2.84.51-5.62.5-8.48 0-5.2-.33-10.37-.4-15.57 0-2.62 0-5.22.17-7.84s-.11-5.24-.18-7.87a36.36 36.36 0 01.12-4.43c.12-1.22.62-3.08.19-4.22-.56-1.47-2.85-1-4-.94s-2.35.06-3.52.1c-1.33 0-3.13-.31-4.38.08-1.48.46-.92 2.7-.94 3.9 0 2.71-.06 5.41 0 8.11.06 5.34-.13 10.67-.06 16-.12 2.02.72 6.02-1.64 6.72zM138.18 413c-1.91-2.06-4.47-3.28-6.93-4.53a21.09 21.09 0 006.25-5.68 16.63 16.63 0 002.28-12c-1.36-8.42-9-11.79-16.69-12.69-3.52-.41-7.09-.22-10.62-.36-3.11-.12-6.25-.17-9.37-.18h-4.37c-1.3 0-3.55-.55-3.92 1.1a21.09 21.09 0 000 4.42v5.08c0 2.84 0 5.68.1 8.52.11 3.17-.29 6.27-.34 9.43-.09 6.08.68 12.15.18 18.24-.25 3-.21 6-.23 8.92q0 2.34.09 4.68c.07 1.2-.36 3.65.58 4.48s3.19.28 4.32.23c1.57-.06 3.13-.09 4.69-.08h9.14c7.33.14 15.29.64 21.69-3.6 3.37-2.23 5-5.79 6.35-9.49a17.19 17.19 0 000-11.73 15.16 15.16 0 00-3.2-4.76zm-30-17.13c.14-1.59-.2-3.6.45-5.07.85-1.9 2.67-1.88 4.44-2.06 3.3-.32 7.92-.37 10.79 1.61 3.17 2.18 3.73 7.21 1.36 10.18-2.71 3.37-7.12 2.32-10.88 2.72-2 .21-4 .46-5.42-1.26s-.87-4.15-.71-6.15zm16.51 34.36c-2.17 1.15-4.84 1.11-7.22 1.12-1.94 0-4 .44-5.89.27-4.87-.44-3.48-6.79-3.32-10.1.09-2-.46-4.62 1.19-6.08 1.32-1.17 3.6-.94 5.28-1 3.8-.19 9.31-.18 12.11 2.9 3.4 3.66 2.31 10.52-2.12 12.86zM188.28 392.29c0-3.55 3.64-3.44 6.2-3.39s4.91.09 7.37 0 5-.12 7.47-.05a14.33 14.33 0 003.52.06c1.71-.39 1.22-2.52 1.26-3.86 0-1 .09-2 .14-3s.54-3.2-.42-4-2.66-.35-3.69-.41c-1.24-.07-2.46-.18-3.7-.21-2.49 0-4.93.33-7.41.39s-5.22-.22-7.83-.24-4.93.13-7.4.14q-2 0-4.08-.09c-1.15-.07-3.05-.47-4.11-.07-1.69.65-.75 5-.7 6.51.07 2.62-.2 5.19-.25 7.8-.05 3.08 0 6.15 0 9.23 0 5-.41 10.11-.09 15.11a96.14 96.14 0 01.18 14.89c-.17 1.88-.16 3.75-.16 5.63v2c0 1.11-.47 3.07.69 3.71 1 .53 2.86.18 4 .2h4.1c2.46 0 4.91-.31 7.38-.31 5.09 0 10.18.05 15.26.1 1.2 0 2.39.11 3.58.22s3 .51 4-.08c1.2-.72.77-2.58.75-3.77s-.06-2.12-.08-3.19.43-3.33-.69-3.95c-.95-.52-2.75-.15-3.83-.13-2.45.06-4.9.05-7.35.09s-5 0-7.55.09c-2.73.06-5.92.21-6.53-3.22-.41-2.32 0-5 .08-7.36.05-2.69-.33-6.1 3.25-6.39a57.55 57.55 0 018-.37c2.48.14 4.94.26 7.43.33.94 0 2.83.41 3.6-.18 1.07-.82.58-3 .54-4.14 0-1-.09-2-.13-3s.41-3.1-.43-3.78c-.67-.54-2.51-.19-3.4-.23-1.24-.06-2.48-.09-3.73-.09-2 0-4 .12-6 .12-3.18 0-9 1.06-9.28-3.61-.19-2.49.04-5.02.04-7.5zM299.08 434c-2.26-6.65-4.14-13.4-6.42-20.05-1.19-3.45-2.47-7-3.86-10.33a88.23 88.23 0 01-3.18-9.5c-1.08-3.74-2.65-7.32-3.76-11.05-.44-1.48-.66-3.39-1.43-4.72s-3.5-.92-4.93-1a46 46 0 00-5.63 0 19.67 19.67 0 00-2.43.07c-1 .17-1.09.83-1.4 1.7-1.18 3.31-2.68 6.39-3.51 9.83s-2.21 6.54-3.34 9.8-2.19 6.89-3.45 10.25-2.38 6.46-3.56 9.7c-1.28 3.54-2 7.22-3.29 10.77-1.15 3.23-2.39 6.37-3.68 9.54-.39.94-1.07 2.09-.42 3s1.84.7 2.81.64c1.76-.11 3.47-.28 5.23-.25s3.7.46 5.28.08 1.75-3.18 2.11-4.54c.45-1.7.73-3.76 1.62-5.28 1.15-1.93 3.28-1.71 5.24-1.63a76.4 76.4 0 0010.15.06c1.69-.16 3.83-.58 5.45 0 2.13.74 2.54 2.92 3.06 4.85.41 1.54.75 3.1 1.19 4.63.39 1.33.65 1.93 2.14 2h2.53c1.81-.06 3.61-.08 5.41 0 1.36.08 4.2.79 4.74-.93.26-.84-.39-2-.7-2.76-.17-.41-.91-1.38-.22-1.51a2.43 2.43 0 01-.37.16c-.46-1.15-.97-2.32-1.38-3.53zm-19.77-14.77c-1.06 1.47-3.69.91-5.28.89h-4.85c-4.56-.07-1.63-6.09-.88-8.64.52-1.74 1.06-3.46 1.46-5.23.34-1.48.52-3.69 1.51-4.87 1.51-1.78 3.69-.45 4.25 1.35.48 1.58.81 3.2 1.23 4.8.51 1.93 1.12 3.83 1.77 5.72.59 1.75 2.01 4.29.79 5.99zM375.8 424c-1.89 0-3.77 0-5.66.1-.76 0-1.53.05-2.3.06-.95 0-2.42-.27-3.27.23s-.89 1.78-1.22 2.59a9 9 0 01-1.85 3 8.73 8.73 0 01-5.63 2.29c-4.5.36-8.56-1.31-10.54-5.53a30.52 30.52 0 01-2.43-12.43c0-3.91-.18-7.95.2-11.83.41-4.29 1.36-9.41 4.81-12.35a10.66 10.66 0 0112.2-.48 12.84 12.84 0 013.89 4.18c.4.74.42 1.7 1.29 1.94a15.6 15.6 0 003.42.05c1.53 0 3.06.13 4.59.16.87 0 2.45.32 3.19-.2 1-.68.25-2.23 0-3.12-1.38-4.17-3.73-9-7.3-11.73-4-3-8.88-4.05-13.81-4.11-2.53 0-5.23-.32-7.72.22a21.64 21.64 0 00-5.85 2.67 20.71 20.71 0 00-8.89 9.41 34.4 34.4 0 00-2.94 7.49 34.9 34.9 0 00-.21 7.44c.13 9.06-.86 18.07 3 26.59a20.92 20.92 0 009.64 10.18 18.85 18.85 0 007.19 2.45c1.83.17 3.67.11 5.51.12 4.88 0 9.77-.53 13.68-3.69 3.22-2.61 5.09-6 6.82-9.68.47-1.02 3.01-6.02.19-6.02zM459.41 413.54c0-5.4-.21-10.82-.14-16.22.07-5 .15-10 0-14.95 0-1.15.23-2.81-.11-3.89-.43-1.35-2.53-.9-3.68-1a73.91 73.91 0 00-7.59 0c-2.06 0-2.4.67-2.38 2.65 0 1.18.07 2.36.09 3.54.06 2.71.15 5.42.18 8.12a72.68 72.68 0 01-.34 8.35c-.39 3.63-3.88 3.32-6.65 3.09a59.2 59.2 0 00-7.88-.14c-2.34.12-5.9.9-7.14-1.72-.62-1.32-.34-3-.51-4.4a34.85 34.85 0 01-.33-4c0-2.73.07-5.46.06-8.19v-3.34c0-1 .39-2.78-.25-3.6s-2.5-.34-3.43-.3a43.35 43.35 0 01-4.56 0c-1.13-.06-2.25-.23-3.38-.21-2.17 0-2 1.76-1.94 3.42 0 2.65-.06 5.33.23 8a39.06 39.06 0 010 8.09c-.26 2.64-.18 5.34-.22 8-.07 5.5.06 11 .18 16.5.06 2.71.34 5.38.32 8.1 0 2.51-.05 5 0 7.53v3.34c0 .49-.15 1.32.23 1.7s1.82.24 2.48.24c2.35 0 4.69 0 7 .05 1.05 0 3.06.43 3.72-.62.55-.87.12-2.95.09-4-.09-2.7-.09-5.39-.07-8.08s0-5.22 0-7.83-.66-6.22 2.28-7.29c2.27-.83 5.49.15 7.88.2 2.74.06 5.46-.2 8.2-.19a4.3 4.3 0 013.57 1.46c1 1.27.74 3.05.66 4.56-.13 2.68-.21 5.33-.24 8s-.14 5.31 0 7.95c.07 1.12.17 2.23.2 3.35a6.41 6.41 0 00.14 2.14c.39 1 1.23.8 2.14.79 2.5 0 5-.06 7.49-.3 1.06-.11 3.06.33 3.51-.89s.05-2.9.07-4.06c0-2.58 0-5.15-.1-7.73-.08-2.76.23-5.43.32-8.17s-.1-5.33-.1-8.05zM261.14 250.91a39.16 39.16 0 006.16-8.78c2-3.74 2.07-8.15 1.66-12.25-.79-7.9-6.18-14.69-12.73-19.4a53.49 53.49 0 00-10.53-5.71 69.55 69.55 0 00-12.62-3.5 44.77 44.77 0 00-13.31-1 106.23 106.23 0 00-12.21 1.62c-8.38 1.82-16.64 5.44-22.84 11.07-3 2.71-6 5.54-7.76 9.09a25.24 25.24 0 00-2.36 12.17 18.24 18.24 0 00.79 5.73 27.27 27.27 0 002.92 5.45 32.08 32.08 0 007.06 8.24c6 4.86 13.52 7.77 21.16 9.54 2.51.58 5 1.37 7.56 1.74a56.47 56.47 0 007.24.52 57 57 0 007.26-.71c2.55-.3 5.13-.42 7.64-1a64.48 64.48 0 0013.85-5.18 43.13 43.13 0 005.81-3 37.41 37.41 0 005.25-4.64zm-10.77-10.65a22 22 0 01-5.48 5.46 32.77 32.77 0 01-7.11 3.2 60.3 60.3 0 01-6.3 2.08 37.09 37.09 0 01-8.61.74c-10.1 0-21.91-2.29-28.69-9.9a12.94 12.94 0 01-2.4-13.44 20.65 20.65 0 0111-10.65 49.29 49.29 0 0115.81-4.15 51 51 0 0116.74 2c6 1.62 11.19 4.47 14.77 9.36 1.59 2.18 3 4.59 3.15 7.28a12.71 12.71 0 01-2.88 8.02zM412.57 217.22c0 9.3.29 18.6.23 27.89 0 4.76.34 9.56.05 14.32-.1 1.66-1.16 5.52 1.21 5.93a15.16 15.16 0 003.49-.16 44.6 44.6 0 014.48-.12c1.66 0 5.84 1.09 7-.22.73-.85.35-2.55.37-3.6s.07-1.91.09-2.86c.09-4.71-.1-9.47-.3-14.17s-.16-9.67 0-14.48c.07-2.35.08-4.69.1-7.05V220a13.12 13.12 0 01.2-3.91c.94-2.81 4.26-2.38 6.79-2.34s5 .09 7.48 0 4.92-.15 7.39-.17c1.08 0 2.16 0 3.24-.06a17 17 0 004-.07c1.73-.52.76-4.61.75-6a21.27 21.27 0 01.24-3.38c.15-1 .65-2.64-.29-3.31s-2.88-.31-4-.39-2.27-.2-3.42-.22h-30.66c-2.4 0-4.79.19-7.18.21s-5-.13-7.47-.14c-4 0-7.9.32-11.86.32h-7.58c-1.1 0-2.85-.3-3.86.05-1.27.43-.79 2.63-.79 3.63v4.56c0 .89.08 1.78.09 2.67 0 1.86.41 2.08 2.39 2.09h7.21c5 0 9.92-.22 14.89-.17 1.32 0 2.78-.18 3.94.52a3.81 3.81 0 011.78 3.33zM332.23 200.91a79.36 79.36 0 00-9.62-.7c-2.25.07-4.47.33-6.72.34-4.5 0-9 .13-13.48.07-2.4 0-4.8 0-7.2-.17-1-.07-2.06-.13-3.09-.14-1.7 0-2.13.32-2.17 1.86-.1 4.12-.45 8.24-.56 12.36-.06 2.22.42 4.31.55 6.5a39.36 39.36 0 01-.43 6.42 34 34 0 00.17 6.13c.18 2.15.11 4.33.08 6.49-.05 4.27-.09 8.55-.23 12.83a46.55 46.55 0 000 6.36c.08.78.24 1.55.32 2.33.11 1-.27 2.79.48 3.58.93 1 4.75.25 6.17.22 2.34 0 4.69-.05 7-.07 1.32 0 2.52.17 2.79-1.24a18.2 18.2 0 000-3.76c0-2.05-.15-4.1-.13-6.16 0-2.72 2-4 4.81-4 2.36 0 4.7-.29 7.06-.24s4.45.44 6.71.39c2.76-.07 5.95-.89 8 1.27a60.39 60.39 0 014 5.06c1.37 1.77 2.76 3.53 4.14 5.3a10.76 10.76 0 002.31 2.64c1.2.76 2.72.56 4.11.58 2.36.05 4.73.07 7.1.13.92 0 1.83.1 2.75.15s2.81.42 3.71-.11c2.11-1.27-1.37-4.26-2.35-5.39a99.54 99.54 0 01-7.92-10.94 2.65 2.65 0 01-.48-2.47c.48-1.24 1.94-1.66 3-2.33a75.35 75.35 0 006.17-4.44 18.31 18.31 0 007-14.06c.14-5.37-2.47-11.82-7.16-15.25a58.71 58.71 0 00-15.41-7.6 37.6 37.6 0 00-9.56-1.75 2.46 2.46 0 010-.4c.12.73-1.39.3-1.92.21zm5.7 14.2c4.35 1.12 8.87 2 11.25 5.9 2.28 3.73 1.12 8.35-2.38 11.08a18 18 0 01-6.52 2.77 63.27 63.27 0 01-7.36 1.68 64.58 64.58 0 01-13.26 0 24.63 24.63 0 00-5.63.16c-1.73.25-3.85.68-5.49-.05-2.93-1.31-2.5-4.16-2.5-6.61s-.09-4.7.06-7c.1-1.51.34-3 .39-4.51.05-1.78.18-3.71 2.16-4.65 1.67-.79 4.26-.32 6.11-.31 2.23 0 4.41.06 6.63.26 2.55.23 5.11 0 7.67 0a34.45 34.45 0 018.87 1.28zM95.29 208.22c0 5.23.29 10.46 0 15.69a120.33 120.33 0 00-.14 15.19c.38 5 0 10.08 0 15.1 0 2.62.07 5.22.14 7.84 0 .6-.21 1.57.08 2.11.37.69 1 .56 1.8.55 1.4 0 2.8-.08 4.2-.1 3-.06 6 .08 8.94-.14 1.88-.13 1.3-1.89 1.35-3.18 0-1.07.11-2.13.13-3.2 0-2.64-.13-10.22-.13-12.76 0-1.39-.61-3 3.65-3s17.87.21 22.15.31h4.46c1.2 0 3.84.35 4.77-.28s.54-2.67.5-3.74-.14-4.27-.21-5.4c-.08-1.29-.07-2.57-.12-3.86-.09-2.05-1.74-1.62-3.63-1.49-2.81.21-5.61.22-8.43.3s-5.78 0-8.69-.21-6 0-9 0c-1.65 0-3.15-.09-4.31-1.26s-1.06-4.31-1.11-5.75c-.09-2.38-1-5.45 1.57-7.09 2.19-1.42 5.71-.7 8.27-.64 3 .07 6-.23 9-.29 5.94-.11 11.88 0 17.82-.06 2.88 0 5.74-.26 8.62-.13 1.21.06 2.41.23 3.62.32a8.29 8.29 0 002.38.08c1.14-.29 1-1.27 1-2.13 0-2.31.07-4.62 0-6.93-.05-.9.35-3.16-.62-3.7s-2.2-.11-4.24-.14c-4-.06-8.09.16-12.11.16-5.1 0-10.18-.21-15.29-.14-6.27.08-12.54 0-18.81 0-3.14 0-6.28-.05-9.42-.09-1.17 0-2.34-.06-3.5-.11s-3.67-.24-4.57.54-.35 2.69-.25 3.72c.03 1.31.13 2.6.13 3.91zM115.92 465.18a37.87 37.87 0 00-3.84-.24c-2.2 0-4.41.37-6.62.36s-4.41-.25-6.61-.23a3.81 3.81 0 00-4 3.77c0 1.13-.06 2.28-.06 3.41v7.32c0 2.44.15 4.88.15 7.33a54.17 54.17 0 00-.11 5.42c.17 2 .59 4 2.45 4.54a4 4 0 004.24-1.6 5 5 0 00.62-3c0-1.2-.21-2.4-.21-3.59a3.84 3.84 0 01.78-2.54c1.08-1.28 4-.76 5.42-.76 1.89 0 3.82.21 5.71.1a3 3 0 000-6.05c-1.83-.11-3.71 0-5.55 0-1.46 0-4.53.49-5.63-.81s-.48-4.09-.48-5.59c0-1.31 1-1.75 2.17-1.82 1.9-.11 3.8-.33 5.7-.28s3.82.14 5.72 0a2.89 2.89 0 00.15-5.74zM169.2 490.74c-3.33 0-6.75.52-10.08.3-3-.19-2-4.59-2-6.66s-.17-4-.17-6 .06-4 .06-6c0-2.81.44-7.36-3.7-7.35-4.45 0-3.79 5.36-3.79 8.3 0 2.28.3 4.57.3 6.85s-.35 4.57-.35 6.85v4.63a8.84 8.84 0 00.43 2.59c1.08 3.48 5.77 2.56 8.55 2.56h5.42c1.81 0 3.62.12 5.43.1s3.64-1 3.64-3.08-1.94-3.09-3.74-3.09zM233 472.51a15.61 15.61 0 00-4.95-4.73 17.74 17.74 0 00-6.25-2.77 20.18 20.18 0 00-6.89-.34 17.92 17.92 0 00-6.48 2.16 16.68 16.68 0 00-5 4.64 15.16 15.16 0 00-2.54 6.23 17 17 0 00-.11 6.85 16.33 16.33 0 002.93 6.2 15.54 15.54 0 005.2 4.42 18.66 18.66 0 007.5 2.28 19.64 19.64 0 007.74-1.21 16.45 16.45 0 006.52-4.22 15.42 15.42 0 003.55-5.93 16.76 16.76 0 00.77-6.89 16 16 0 00-1.99-6.69zm-5.46 10.88a9.64 9.64 0 01-4.62 6.54 10.66 10.66 0 01-6.84 1.25 9.9 9.9 0 01-5.95-3.51 10.37 10.37 0 01-2.13-5.83 10.58 10.58 0 011.31-6 9.21 9.21 0 014.32-4.1 10.75 10.75 0 016-.9 9.36 9.36 0 016.47 4.69 11.29 11.29 0 011.42 7.86zM291.05 469.05a11.89 11.89 0 00-6.13-3.47 35 35 0 00-7.17-.51h-6c-1.59 0-3.19 0-4.32 1.36-1.44 1.75-.7 5.23-.7 7.31s-.18 4-.18 6 .18 4 .18 6c0 2.44-.41 4.91-.31 7.35a3.77 3.77 0 004.57 3.53c2.58-.53 2.79-2.72 2.79-4.9 0-2 .26-3.84 2.73-3.88 1.92 0 4-.22 5.27 1.46 1 1.3 1.9 2.75 2.84 4.11s1.83 3.32 3.89 3.32c2.77 0 3.85-2.88 2.48-5-.85-1.32-2.18-2.66-2.78-4.1s1.85-2.41 2.79-3.33a9.86 9.86 0 002.79-4.82 12.36 12.36 0 000-5.61 10.14 10.14 0 00-2.74-4.82zm-4.53 9.61c-.68 2-2.7 2.86-4.72 3.18a23.69 23.69 0 01-3.83.46c-1 0-2.4.22-3.24-.38-1.55-1.09-.91-4.91-.91-6.51 0-.75-.06-1.55 0-2.3.15-1.6 1.5-2.14 2.89-2.14 2.71 0 6.1-.36 8.33 1.49a5.91 5.91 0 011.48 6.2zM333.21 469.68c0-2.28-1-4.48-3.65-4.51-3.1 0-3.67 2.74-3.67 5.16 0 2.67.18 5.35.18 8 0 2.39-.15 4.78-.16 7.17s-.22 4.78-.2 7.17c0 2.67 2.43 4.91 5.22 3.73 2.16-.92 2.34-2.81 2.34-4.78v-7.82-7.84c.04-2.09-.06-4.19-.06-6.28zM391.16 467.42a19.41 19.41 0 00-8-2.29c-3-.24-6 0-9 0-2.83 0-7.4-.49-7.4 3.69v18c0 2.09-.19 4.21-.1 6.3a3.81 3.81 0 003.09 3.63 15.79 15.79 0 003.07.2c2.69 0 5.52-.08 8.3-.21a26.19 26.19 0 008.17-1.32 14.35 14.35 0 006.45-5.06 15.58 15.58 0 002.88-8.27 16.27 16.27 0 00-1.63-8.65 14.9 14.9 0 00-5.83-6.02zm-2 19.9a10.52 10.52 0 01-8.36 3.5c-1.55 0-3.16.09-4.69-.06-2.11-.19-2.14-1.95-2.14-3.53 0-1.9.19-3.8.19-5.7s-.15-3.81-.15-5.71a15.33 15.33 0 010-3c.44-2.14 3.21-1.59 4.81-1.59a17.31 17.31 0 016.54.91 8.75 8.75 0 015.5 6.34 10.58 10.58 0 01-1.73 8.84zM455.88 485c-.87-1.93-1.81-3.84-2.67-5.77s-1.69-3.89-2.56-5.82c-1-2.24-1.92-5.71-4-7.25a5.59 5.59 0 00-8 1.67 17.61 17.61 0 00-1.43 2.13c-.76 1.7-1.49 3.42-2.25 5.12s-1.25 3.53-2 5.23-1.58 3.38-2.34 5.08-1.48 3.43-2.24 5.13a11.23 11.23 0 00-.9 2.29 3.42 3.42 0 005.31 3.46c1.47-1.1 1.66-3.4 2.47-4.94s2.41-1.19 3.9-1.19c3.33 0 6.66.06 10 .06 2.24 0 2.63 3.29 3.49 4.81a3.44 3.44 0 006.44-1.67 8.4 8.4 0 00-.88-3.21c-.74-1.73-1.57-3.42-2.34-5.13zm-10.82-.45h-4.38c-1 0-2.32-.12-2.07-1.52.12-.65.81-1.28 1.05-1.88.87-2.09 1.45-4.52 2.58-6.47 1.41-2.46 2.57 1.7 3 2.65.79 1.92 1.53 3.86 2.33 5.78.64 1.67-1.67 1.43-2.51 1.43zM161.18 176.07c1.24 0 2.48.11 3.79.23s2.68.24 4.06.24h3.94c2.57 0 5.18 0 7.75.11 1.3.07 2.65.15 4 .15s2.72-.11 4-.21 2.56-.2 3.81-.2 2.46-.06 3.65-.13 2.34-.13 3.49-.13a11.26 11.26 0 011.34.12 6.42 6.42 0 004.4-.57c3.88-2.36 3.75-6.94 3.64-10.62v-1.82a10.76 10.76 0 01.19-1.63 8.62 8.62 0 00.08-3.62c-.85-3.37-4-5.73-7.11-5.37-3 .35-5.21 3.14-5.6 6.95-.21 2.07-1.33 2.13-1.75 2.15-2.22.12-4.6.18-7.28.18-1.69 0-3.44-.09-5.13-.18l-2.72-.12c-1.18 0-1.45-.39-1.43-3.62v-.6c0-1.86-.05-3.74-.1-5.56s-.09-3.66-.09-5.48a5.44 5.44 0 01.43-2.5c.47-.94.94-1.13 1.6-1.13 1.52 0 3 0 4.54.07s3.07.07 4.6.07c.49 0 1 0 1.56.07 2.36.16 5.3.35 7.34-1.91a8.11 8.11 0 001.29-8.21c-.91-2.39-3.14-4.84-6.06-4.91a28.75 28.75 0 00-4.49.35 29 29 0 01-3.73.33c-.7 0-1.4 0-2.11-.09s-1.51-.09-2.29-.09a3.36 3.36 0 01-1.93-.42c-.45-.31-.87-.84-.87-2.58 0-.8.07-1.61.14-2.47s.16-1.81.16-2.75-.05-1.86-.11-2.76-.11-1.73-.11-2.57c0-1.42.18-2 .77-2.51.43-.38.86-.41 1.79-.41.66 0 1.33 0 2 .07 2.25.14 4.51.08 6.77.05H194.16c1 0 1.29 0 1.59.43a3.12 3.12 0 01.63 1.7v.22c.15 1.55.34 3.47 1.59 4.83a6.23 6.23 0 008.66.31c2.17-1.85 2.44-4.61 2.44-6.52 0-.82.09-1.66.19-2.55a27.88 27.88 0 00.2-2.93 12.8 12.8 0 00-1.33-5.82 8 8 0 00-6.73-4.45 23.3 23.3 0 00-4.59.07c-.82.06-1.58.13-2.26.13-1.07 0-2.14 0-3.21.06s-2.29.08-3.43.07-2.19-.07-3.27-.13-2.23-.13-3.37-.14-2.08 0-3.12-.07-2.35-.08-3.53-.08c-1 0-2 0-3.06-.09-1.18 0-2.39-.11-3.6-.1h-.64c-2 0-4 0-6 .08-2.9.07-4.67 2.55-5.35 4.84a6.27 6.27 0 002.13 7 7.58 7.58 0 002.17 1.11c1 .38 1.47.57 1.79 1.39a3.6 3.6 0 01.29 1.38c0 1.48 0 3-.06 4.43q0 2-.06 4v4.12c0 1.38-.06 2.86-.06 4.29s.09 2.7.17 4 .17 2.54.17 3.79V145.19c0 1.29.05 2.67.1 4s.1 2.56.1 3.83a30 30 0 01-.27 3.45 31.76 31.76 0 00-.3 3.82 7.36 7.36 0 00.06.82 2.59 2.59 0 010 .48c-.06 1.49-.67 1.93-1.56 2.14a6.37 6.37 0 00-5.33 5.86 6.26 6.26 0 001.59 4.68 5.77 5.77 0 004.28 1.8zM229 133.78l.11.12a29.59 29.59 0 005.38 4.39 33.21 33.21 0 005.68 2.69c.58.23 1.16.46 1.74.71 1.06.44 2.14.95 3.18 1.44 1.32.63 2.68 1.27 4.08 1.82l.81.32a21.36 21.36 0 014.78 2.32 8.35 8.35 0 013.48 4.75 9.72 9.72 0 01-.22 6.41c-.63 1.36-2 2.37-4.39 3.26s-4.66 1.65-6.93 1.39a20 20 0 01-6.86-2.58 4.33 4.33 0 01-2.63-3.61 18.75 18.75 0 00-1.16-4.87c-1.22-2.86-3.4-4.56-5.82-4.56a6.81 6.81 0 00-6.13 4.39 12.91 12.91 0 00-.93 5.13 22.63 22.63 0 00.18 2.51c.08.7.16 1.37.17 2a9.32 9.32 0 002.78 6.73 30.2 30.2 0 006.79 5 32.5 32.5 0 007.59 3.13 34.42 34.42 0 008 1.12h.1a33.52 33.52 0 007.48-1.11l.38-.09a25.76 25.76 0 006.42-2.69 20.68 20.68 0 005.94-4.1 19.27 19.27 0 003.78-6.68 23.46 23.46 0 001.34-7.72 25.87 25.87 0 00-1.42-8.89 30.64 30.64 0 00-4.06-7.77 22.59 22.59 0 00-6.07-5.07 18.57 18.57 0 00-4.44-1.8c-.83-.26-1.62-.5-2.36-.8q-2.58-1.06-5.19-2.08l-1.75-.69a32.15 32.15 0 01-6.43-3.28 8 8 0 01-3.4-4.4 8.25 8.25 0 011.36-6 7.48 7.48 0 015-3.15 18.76 18.76 0 016.42-.57c2 .24 5 .61 6.67 2.06.73.66.89 1.65 1.1 3.22 0 .35.09.71.15 1.07a8.67 8.67 0 003.39 5.82 6.25 6.25 0 007.71.24c2.85-2.35 2.68-6.26 2.54-9.4 0-.66-.05-1.32-.05-1.94v-.13a10.87 10.87 0 00-1.15-5.89c-1.32-2.17-3.58-3.58-5.39-4.71l-.41-.26a27.82 27.82 0 00-6.74-2.78l-1-.3a32.65 32.65 0 00-8-1.53c-.63 0-1.26-.1-1.89-.16a21.14 21.14 0 00-6.3 0 26.72 26.72 0 00-7.81 3.2 24 24 0 00-6.16 4.72 20.79 20.79 0 00-3.75 7.47 23.2 23.2 0 00-1.58 8 24.56 24.56 0 001.55 8.17 18 18 0 004.34 6.01zM287 118.76a5.86 5.86 0 004.63 1.7c2.2-.17 4.23-1.86 5.29-4.42a12.85 12.85 0 00.6-2c.31-1.37.48-1.87 1.13-2.13a6.41 6.41 0 012.17-.25 8.41 8.41 0 011.62.23 10.34 10.34 0 002.21.3c1.66 0 1.94.23 2 1.68.1 3.25.16 6.73.16 10.33 0 1.54 0 3.07-.08 4.6s-.08 3.12-.08 4.68.11 3.2.22 4.75.21 3 .21 4.52c0 1.23-.1 2.46-.21 3.76s-.23 2.66-.23 4 .13 2.73.26 4 .24 2.51.24 3.73c0 1 0 2.09-.06 3.12-.05 1.39-.46 1.58-2 2.09a7.16 7.16 0 00-3 1.6 6.89 6.89 0 00-1.52 7.3 5.82 5.82 0 005.13 4.1h.3a13.16 13.16 0 002.3-.27 19.38 19.38 0 015.09-.08c1.12.08 2.28.15 3.44.16s2.46-.06 3.65-.12 2.07-.11 3.11-.12a5.89 5.89 0 004.78-2.4 6.47 6.47 0 00.85-5.59 5.79 5.79 0 00-4.56-4.32 2.08 2.08 0 01-1.88-2 58.87 58.87 0 01-.19-6.68v-1.81-4.32-4.36-4.37-4.32-4.35-4.33c0-1.44.06-2.88.11-4.28s.12-2.93.12-4.41v-1.47c-.14-3.89.2-5 1.5-5.11l.91-.06c1.74-.1 3.54-.21 5.26-.18a1.56 1.56 0 011.45 1.36 9.09 9.09 0 01.18 1 8.42 8.42 0 00.59 2.29 6.51 6.51 0 002.5 2.65l.09.07a5.7 5.7 0 006.11.38 7.33 7.33 0 003.58-6.55c0-1 .06-2.06.12-3.14.07-1.23.15-2.5.13-3.77-.08-5-3.43-9-7.62-9.11a34.79 34.79 0 00-3.85.16c-2.38.19-4.54.16-6.78.13-2.56 0-5.16 0-7.63.11-1.22.07-2.47.14-3.68.14a28.09 28.09 0 01-3.58-.31 31.88 31.88 0 00-4-.33c-1.29 0-2.59.07-3.85.15s-2.46.15-3.68.15c-2.56 0-5.1 0-8.11.11-3.73.09-6.74 2.83-7.49 6.84a41.76 41.76 0 00-.44 7.55v.6a9.15 9.15 0 002.48 6.62zM361.34 163.8a6 6 0 00-3.81 3 6.75 6.75 0 00-.29 5.36c1.5 4.4 5.35 4.34 7.9 4.31h6.1c1.79 0 3.59.06 5.38.06h1.86c2.48 0 5.64-.36 7.11-3.87a7.82 7.82 0 00-.28-6.33 5.61 5.61 0 00-3.69-3.14l-.34-.07c-2-.45-2.35-.69-2.39-1.7 0-.22 0-1.68.05-3.09.05-2.35.11-5.27.11-6.94 0-1.45 0-2.89.06-4.33s.05-2.93.05-4.39.08-2.87.15-4.28.15-2.94.15-4.44v-8.71c0-1.69-.07-3.39-.15-5s-.14-3.27-.14-4.89v-1.26c-.06-1.21-.14-2.86.36-3.5.15-.19.38-.25 1.07-.37a6.23 6.23 0 00.86-.17 6 6 0 004.14-3 6.81 6.81 0 00.24-5.48 6.4 6.4 0 00-3.66-3.83 8.88 8.88 0 00-3.15-.69c-.84 0-1.67.05-2.46.11s-1.52.11-2.26.11c-1.73 0-3.46 0-5.19.06s-3.43.07-5.14.07a6.54 6.54 0 01-.77-.09 4.95 4.95 0 00-5.69 3 7.48 7.48 0 00-.05 6 5.49 5.49 0 003.71 3.45l.66.16a2.66 2.66 0 011.34.52 3.71 3.71 0 01.38 2.15c0 1.08 0 2.16.08 3.25s.07 2.46.07 3.69c0 1.43 0 2.85.07 4.27s.06 2.8.06 4.2-.07 2.79-.14 4.16-.14 2.86-.14 4.31v4.26c0 1.42.05 2.81.05 4.21v8.93c0 2.5.05 5.08-.05 7.59.03 1.15-.35 1.86-2.22 2.34zM464.76 99.42a6 6 0 00-4.36-2.34c-1.77-.08-3.56 0-5.29 0h-3c-1.7 0-3.4.11-5.05.21-1.44.09-2.93.18-4.38.2-3.21 0-5.56 1.82-6.13 4.64a7 7 0 001.67 5.75 6.77 6.77 0 002.69 1.92c.28.13.57.27.86.43 1.7 1 1.81 3.07 1.78 6.16V123.83c0 1.1-.05 2.14-.09 3.2s-.1 2.22-.1 3.35c0 2 0 3.9-.06 5.85s-.06 3.94-.06 5.9a7.43 7.43 0 01-.2 2l-.09-.15-.32-.61c-1.37-2.61-2.79-5.32-4.14-8l-1.65-3.32q-1.35-2.7-2.71-5.39c-.6-1.19-1.21-2.36-1.82-3.53s-1.22-2.33-1.81-3.5-1.14-2.36-1.67-3.54-1.11-2.45-1.72-3.66-1.29-2.39-1.93-3.53-1.28-2.25-1.86-3.39l-.19-.39c-1.21-2.39-2.35-4.65-4.79-6.2a11.48 11.48 0 00-5.9-1.89c-1.89-.06-3.81-.06-5.5-.06h-3.75a5.79 5.79 0 00-4.49 2.57 7.15 7.15 0 00-1 6.08 6 6 0 003.73 4.26 6.32 6.32 0 011.89 1c.46.35.67.69.68 1.82 0 1.61 0 3.21.1 4.82.05 1.77.1 3.6.1 5.39v10.23c0 1.41.1 4.8.2 8.38.1 3.39.2 6.91.2 8.27s-.05 2.75-.09 4.12-.08 2.81-.08 4.21v.75c0 1.45.05 3.43-.69 4.2-.06.07-.3.09-.65.11a5.5 5.5 0 00-1.28.2 6.69 6.69 0 00-4 4.21 7.16 7.16 0 00.62 6.09 5.62 5.62 0 004.21 2.86c.5 0 1 .07 1.52.07 1.13 0 2.25-.11 3.35-.21s2.06-.19 3.05-.19h9.95a5.76 5.76 0 005.59-2.9 7 7 0 00.25-6 6 6 0 00-3.91-3.62c-2-.55-2.45-.79-2.5-2.13 0-.36 0-2.38.08-4.32.06-2.45.13-5.23.13-6.74s-.11-4.86-.22-8.49c-.11-3.45-.22-7-.22-8.4 0-1.07.16-3.58.17-3.73 0-.33.2-.44.17-.47a.43.43 0 01.11.16c.62 1.21 1.25 2.41 1.88 3.6s1.25 2.36 1.86 3.55 1.25 2.41 1.89 3.6 1.27 2.34 1.87 3.53 1.26 2.51 1.88 3.77 1.25 2.52 1.88 3.77 1.29 2.5 1.94 3.75 1.29 2.47 1.93 3.72l1.89 3.76 1.89 3.77c.35.68.67 1.39 1 2.09.4.87.8 1.77 1.26 2.63a9.34 9.34 0 008.14 5 8.71 8.71 0 008.32-4.7 18 18 0 001.73-8.8v-4.88-4.86-4.6-4.59c0-1.53 0-3.12-.09-4.64s-.09-3-.09-4.55-.06-3.13-.12-4.65-.12-3-.12-4.53c0-1.67.07-3.38.14-5s.14-3.43.14-5.16v-.68c0-2.06.05-3.08.93-3.59a3.38 3.38 0 011-.31 5.89 5.89 0 001.78-.59 7.22 7.22 0 003.37-5.07 7 7 0 00-1.7-5.49zM101.12 176.49c1.74-.16 3.39-.31 5-.31s3.39 0 5 .1 3.41.1 5.13.1a33 33 0 0010.93-1.65 25.13 25.13 0 008.29-4.41 29.77 29.77 0 006.31-7.64 32.67 32.67 0 003.68-9.43 43.83 43.83 0 001.11-10.17c0-1.42.12-2.84.23-4.35s.25-3.27.24-4.94a73.8 73.8 0 00-.63-9.46 36.8 36.8 0 00-2.49-9.19 30.94 30.94 0 00-5.27-8.39 27.24 27.24 0 00-4.92-4.56 26.49 26.49 0 00-5.65-3.32 26 26 0 00-6.08-1.78 26.3 26.3 0 00-5.1 0c-2.17.15-4.14.14-6.18.19-2.19.06-4.39.06-6.58 0s-4.22 0-6.5-.22c-1.12-.11-2.28-.22-3.45-.22a6.08 6.08 0 00-4.35 1.64 7 7 0 00-2 5.46 6.78 6.78 0 002.47 5.12 8 8 0 003 1.47 5.35 5.35 0 001.18.09h.3c0 1.1-.08 3.38-.14 5.14-.08 2.21-.16 4.49-.16 6 0 1.75.1 3.49.21 5.18s.2 3.35.2 5c0 1.34-.09 2.67-.19 4.07s-.2 2.85-.2 4.3.13 2.92.26 4.33.24 2.72.24 4-.08 2.75-.17 4.09-.16 2.84-.16 4.29c0 .88.07 1.77.15 2.63a21.87 21.87 0 01.12 3.08c0 .31 0 .44-1.38.73l-.4.08a6.17 6.17 0 00-5.07 6.83c.25 3.76 3.4 6.39 7.66 6.39 1.84.05 3.63-.11 5.36-.27zm9.26-44.89c-.06-1.25-.13-2.54-.13-3.79v-3.85c0-1.29.06-2.61.06-3.91s0-2.61-.06-3.92-.06-2.47-.06-3.7a2.41 2.41 0 00.07-.56c.26-.24 1.17-.33 2.72-.26h.65c1.56 0 3.19.13 4.76.26h.48a10.71 10.71 0 015.39 2.2 13.9 13.9 0 014.38 4.6 21.39 21.39 0 012.28 6.72 48.3 48.3 0 01.42 7.19c0 1.19-.12 2.42-.23 3.62s-.23 2.53-.23 3.8v.32a50.8 50.8 0 01-.45 8.39 19.08 19.08 0 01-2.8 7.56 11 11 0 01-7 4.79l-.32.07a25.21 25.21 0 01-5.49.83 31.78 31.78 0 01-4-.17c-.27-.12-.49-.28-.49-1.18 0-1.34.09-2.67.19-4.08s.2-2.84.2-4.3-.13-2.92-.25-4.33-.25-2.72-.25-4 .09-2.74.17-4.09.17-2.84.17-4.29-.11-2.63-.18-3.92z"/></svg>