<svg xmlns="http://www.w3.org/2000/svg" viewBox="0 0 1024 1024"><path d="M998.11,916.5H912.39V349.68A86.66,86.66,0,1,0,818.18,322L702.33,474.39a86.52,86.52,0,0,0-107,6.69l-100-38.43v.1a86.36,86.36,0,1,0-161.58,42.43L218.26,620.23A86.32,86.32,0,0,0,108,745.84L51.39,841.91V82.52c0-13-10.6-25-23.61-25.95A25.5,25.5,0,0,0,.39,82V967.5h997.2c13,0,25-10.6,25.95-23.61A25.5,25.5,0,0,0,998.11,916.5ZM683.39,626.44a86.44,86.44,0,0,0,51.05-110.15L860.76,350.42l.63.19V916.5h-178ZM885.61,232a35.5,35.5,0,1,1-35.5,35.5A35.5,35.5,0,0,1,885.61,232Zm-232,278a35.5,35.5,0,1,1-35.5,35.5A35.5,35.5,0,0,1,653.61,510Zm-84.05,15.5a86.54,86.54,0,0,0,63.83,104v287h-199V525.29a87.15,87.15,0,0,0,46.4-33.87ZM157.39,781V916.5H67.15l81.5-138.34A86.49,86.49,0,0,0,157.39,781Zm50-1.86a86.3,86.3,0,0,0,47.34-123.46L371.06,520a88.2,88.2,0,0,0,12.33,5V916.5h-176ZM409.61,407a35.5,35.5,0,1,1-35.5,35.5h0A35.56,35.56,0,0,1,409.61,407Zm-230,255a35.5,35.5,0,1,1-35.5,35.5A35.5,35.5,0,0,1,179.61,662Z"/></svg>