<svg xmlns="http://www.w3.org/2000/svg" viewBox="0 0 1024 1024"><path class="a" d="M476.46,1019.5A471.87,471.87,0,0,1,394.55,82.9a70.6,70.6,0,0,1,82.71,69.59v139.8a70.59,70.59,0,0,1-51.93,68.1A194.09,194.09,0,1,0,613.71,684.87h0c3.67-3.67,7.23-7.53,10.59-11.46A70.44,70.44,0,0,1,709.18,656l125,61.72a70.68,70.68,0,0,1,26,104.67,475.41,475.41,0,0,1-50,58.87,471,471,0,0,1-333.72,138.2ZM406.82,132.83a19.35,19.35,0,0,0-3.47.31,420.94,420.94,0,1,0,370.77,712.1,424.67,424.67,0,0,0,44.65-52.54,19.66,19.66,0,0,0,3.16-16.43,19.29,19.29,0,0,0-10.3-12.78l-125-61.72a19.52,19.52,0,0,0-23.52,4.74c-4.22,5-8.71,9.81-13.33,14.42h0A245.07,245.07,0,1,1,412,311.16a19.49,19.49,0,0,0,14.26-18.87V152.49a19.66,19.66,0,0,0-19.44-19.66Z"/><path class="a" d="M938.54,662.55a61.17,61.17,0,0,1-27.11-6.34L769.2,586a61.44,61.44,0,0,1-32.83-67.37,196.53,196.53,0,0,0,3.92-39.11,194.28,194.28,0,0,0-148.8-188.81,61,61,0,0,1-47.07-59.56V73a61.24,61.24,0,0,1,70-60.59A472.36,472.36,0,0,1,997,619.53a61.26,61.26,0,0,1-58.46,43ZM605.61,62.79A10.25,10.25,0,0,0,595.42,73v158.1a10.18,10.18,0,0,0,7.85,9.94,245.29,245.29,0,0,1,188,238.43,247.53,247.53,0,0,1-4.94,49.28,10.41,10.41,0,0,0,5.43,11.48L934,610.49a10.23,10.23,0,0,0,14.29-6.11A421,421,0,0,0,607.15,62.9,12,12,0,0,0,605.61,62.79Z"/></svg>