<svg xmlns="http://www.w3.org/2000/svg" viewBox="0 0 1024 1024"><path class="a" d="M178.25,486.77H632.84L505.19,360.55a25,25,0,0,1,0-35.66,25.71,25.71,0,0,1,36.06,0L712.46,494.18l.43.45.4.42c.27.29.53.58.78.88v0a25,25,0,0,1-1.62,33.89l-.88.82L541.23,699.11a25.71,25.71,0,0,1-36.06,0,25,25,0,0,1,0-35.66L632.84,537.2H178.25a25.22,25.22,0,1,1,0-50.43Z"/><path class="a" d="M320.06,1019.59h277c73.24,0,142.09-28.21,193.87-79.44s80.3-119.33,80.3-191.78V275.63c0-72.45-28.52-140.55-80.3-191.78S670.32,4.41,597.08,4.41H333.25a25.22,25.22,0,1,0,0,50.43H597.08a222.91,222.91,0,0,1,157.8,64.66,218.18,218.18,0,0,1,65.37,156.13V748.37A218.18,218.18,0,0,1,754.88,904.5a222.91,222.91,0,0,1-157.8,64.66h-277a25.22,25.22,0,1,0,0,50.43Z"/></svg>