<svg xmlns="http://www.w3.org/2000/svg" viewBox="0 0 1024 1024"><path d="M528.61,359.26h-117v-117c0-13-10.6-25-23.61-25.95a25.5,25.5,0,0,0-27.39,25.43v117.5h-117c-13,0-25,10.6-26,23.61a25.5,25.5,0,0,0,25.43,27.39h117.5v117c0,13,10.6,25,23.61,26a25.5,25.5,0,0,0,27.39-25.43V410.26h117.5a25.5,25.5,0,0,0,25.43-27.39C553.63,369.86,541.65,359.26,528.61,359.26Z"/><path d="M1002,876.6,712.27,585.79c123.39-200.53,39.93-470.1-191-559.62C388-25.48,199,19.52,103.36,125.69-62.47,309.71-15.46,588,185.07,711.34a383.21,383.21,0,0,0,404.85-2l289.89,291,.2.19a64.82,64.82,0,0,0,45.76,18.72h.6a64.87,64.87,0,0,0,46-19.55l30.31-30.85A65.39,65.39,0,0,0,1002,876.6ZM386.37,716.5C203.28,716.49,54.86,568.06,54.87,385A331.51,331.51,0,0,1,152,150.59c129.51-129.42,339.42-129.35,468.84.16C740.59,270.63,750.69,461.56,644.2,593.4c-1,1.11-1.89,2.21-2.8,3.28-2.76,3.25-5.36,6.32-8,9l-25.21,25.67A329.19,329.19,0,0,1,386.37,716.5ZM966.31,932.69,936,963.55a14.32,14.32,0,0,1-20.17.25L632.24,679.12c2.26-2,4.72-4.28,7.24-6.85l3.95-4q6.84-6.24,13.44-12.77,13.44-13.47,25.4-28L965.93,912.24l.2.2A14.34,14.34,0,0,1,966.31,932.69Z"/></svg>