<svg id="Layer_1" data-name="Layer 1" xmlns="http://www.w3.org/2000/svg" xmlns:xlink="http://www.w3.org/1999/xlink" viewBox="0 0 6164.42 4114.75"><defs><style>.cls-1{fill:none;}.cls-2{clip-path:url(#clip-path);}</style><clipPath id="clip-path" transform="translate(1759.87 792.09)"><path class="cls-1" d="M745.87,1731.38a4.23,4.23,0,0,1-1.75-.34A5.44,5.44,0,0,1,745.87,1731.38Zm-1.7-7.76c1.1-6.32,2.38-12.6,3.74-18.87,5.77-26.37,13.71-51.86,17.31-78.71.9-6.64,2.15-13.17,3.39-19.75,1.79-9.56,0-14.19-10.08-14.53-13.82-.46-27.64-1.26-41.47-1.35-12.83-.07-25.65-.7-38.48-.83-8.32-.08-11.34,1.58-13.45,10-1.84,7.35-2.87,14.92-4.72,22.29-6.83,27.17-13.31,55.34-17.68,83-4.05,25.67-7.44,50.77-13.41,76.14-4.32,18.35-7,37.19-10.22,55.74-1.36,7.72-1.94,16.76-9.51,21.14-17,9.8-22.08-13.86-26.16-24.51-4.94-12.91-57.4-183.32-61.14-197.58-3.09-11.81-4.74-24.43-9-35.88-4.86-12.93-27.05-7.8-38.72-8-12.89-.22-25.77-.5-38.67-.55-7.57,0-11.33-.5-14.65,6.64-3,6.38-4.26,14.07-6.6,20.77-4.42,12.64-59.26,212.19-64.71,227.08-4.76,13-21.79,16.73-30.42,4.77-4.47-6.19-4.5-15.36-6.06-22.66-1.18-5.46-2.52-10.88-3.71-16.33-12-55.51-18.77-111.73-29.46-167.45-2.36-12.29-6.35-24.14-8.9-36.38-1.05-5-1.16-14-6.65-16.81-5-2.54-15.21-.52-20.93-.68-13.63-.38-27.5-1.33-41.07.32-5.36.65-10.66,1.77-16,2.3-6.73.66-21.53-2-23.74,6.92-1.39,5.65,2.63,14.53,4.1,20.1s3.21,11.27,4.69,17c3.67,14,6.52,28.29,9.49,42.49,5.72,27.34,11.06,54.75,16.78,82.09,11.22,53.62,19.22,108.57,34.27,161.32,7.17,25.12,13.56,50,19,75.54,3,14,5.78,27.85,7.77,42,1.5,10.69.52,26.29,13.75,27.53,12.48,1.16,25.48,3.08,38,3.39,13.77.35,27.28-2.05,41-2.47,7.93-.24,11.7-1.32,14.26-9.21,2.18-6.75,4-13.65,5.79-20.5,3.6-13.36,8-26.49,11.37-39.91,6.4-25.64,16-49.6,23.92-74.7q12.57-39.91,24.73-80,8.22-27,16.55-54c2.35-7.67,4.24-16.3,12.86-19.29,18-6.24,22.3,16.38,26.11,28.34,16.27,51.14,30.37,102.76,49,153.16,9.54,25.85,16.83,53.15,24.13,79.71,2.72,9.87,4.46,32.72,14.73,36.51,5.77,2.13,14.9.54,21.1.7s12.3.33,18.45.37c13.17.08,26-1.76,39.1-2.27,7.27-.28,11.81,1.27,14.64-6,2.68-6.9,3.55-15,5.72-22.16,7.7-25.36,14.27-51.49,20-77.38,5.93-26.72,10.16-53.85,15.8-80.66,5.38-25.53,11.41-50.91,17-76.39,5.44-24.73,11.94-49.28,15.9-74.31.34.06.74.09,1.15.13C741.89,1730,743.69,1726.37,744.17,1723.62ZM1186,2031.25c1.89,8.68,13.32,33.13,3.77,38.26-5.49,2.95-16.43.75-22.33.75-7.07,0-14.13-.05-21.19,0-7.21,0-14.39.27-21.6.61-5.69.27-13.26,1.8-18.75.48-12.09-2.91-13.83-25.68-16.81-36.16-3.29-11.56-5.41-24.76-10.62-35.55-8-16.5-24.49-15.09-40.17-14.93-25.81.25-51.36.21-77.12-1.34-15.5-.93-31.83-3.1-41.55,11.58-7.4,11.17-9.11,27.31-12,40.29-2.52,11.45-3.41,33.79-17.59,35.7-12.77,1.73-27.42-.93-40.3-1.09-7.13-.08-14.08-.62-21.15-1.36-6.86-.71-15.23.49-21.76-1.29-14.53-4-1.35-27,2-36.5,9.7-27.23,16.3-55.29,25.49-82.66,17.4-51.81,34-103.84,51.73-155.53,8.92-25.94,17.45-51.36,24.5-77.89,7.38-27.74,32.27-103.9,35.59-114.56,3-9.71,9.11-8.39,18.62-8.26,13.92.19,45.45,0,59.3,0,6.73,0,20.77-2.17,23,4.18s3.2,11.22,5.43,17.51c8.49,23.89,16,47.74,23,72.09,8,27.74,15.32,56.72,26.08,83.52,16.41,40.89,28.29,83.43,41.8,125.38,6.5,20.17,12.68,40.44,19.18,60.61C1170.71,1980.28,1180.35,2005.34,1186,2031.25Zm-150.15-177.33c-5-14-9.14-28.28-13-42.65-3.1-11.45-5.64-23.18-9.35-34.45-4-12.2-18.56-21-28.38-8.34-6.7,8.65-28,92.57-30.49,102.47-2,7.89-5.8,16.22-1.15,23.92,4,6.55,10.29,7.63,17.37,7.7,11.22.12,22.42-.6,33.62-1.07,11.4-.49,30.14,3.5,37.87-7S1039.82,1864.91,1035.89,1853.92Zm382.18,131.81c-12.83-1.28-25.21-10.63-25.21-24.42,0-50.92,1.91-101.84,2-152.75.07-25.34,2.27-50.85-.13-76.13-2.44-25.82.47-50.82.74-76.57.12-12.12.12-24.25.23-36.38,0-6.37,1.15-13.75-.13-20-2-9.6-9.35-10.09-17.61-9.92-12.23.25-24.39,1.12-36.64,1-11-.07-26.6-3.64-37.27-.9-12.5,3.22-8.25,24.94-8.82,35.08-.73,12.78-1,25.53-.79,38.33.47,24.41,1.06,48.47-.16,72.88-2.5,50,2.13,100.46,1,150.58-1.18,50.81.27,101.55-1.74,152.38-.45,11.29-4.64,28.28,10.64,30,5.85.65,12.17,0,18,0,17.77,0,35.57.17,53.34-.21,50.36-1.06,100.68,1.18,151.06.55,11.64-.15,23.19-1.32,34.82-1.74,4.82-.17,14.74,1.68,18.74-1.41,4.7-3.63,2.35-14.26,2.45-19.6.22-11.23,1-22.44,1.28-33.66.16-6.57,1.76-15.3-1-21.36-3.68-8-12.52-6.17-19.85-5.83-24.43,1.1-48.14,2.12-72.63.78C1466.51,1985.15,1441.88,1988.1,1418.07,1985.73Zm483.45-311.83c12,.11,29.33,4.65,30.27-11.34.74-12.7.46-25.62.78-38.35s5.1-34.08-12.57-34.43c-12.55-.25-24.83,2.67-37.29,3.57-28.3,2-57.79-.38-86.13-1.2-24.33-.71-48.67-1.17-73-1.94-27.52-.87-54.7,2-82.17,2.06-11.84,0-23.68.23-35.51.33-6.68.06-15.59-1.55-21.76,1.15-8.15,3.57-5.9,12.9-5.63,20.2.42,11.28,2,22.47,2.5,33.75.35,7.14-1.53,16.84,2,23.21,4,7.09,12.49,4.93,19.49,4.67,25-.94,49.86-1,74.88-.8,15,.16,27.3,7.54,28.59,23.63,1,12.52-.16,25.48-.28,38-.27,27.48.06,55.08.76,82.55.63,24.75.62,49.41.4,74.16-.25,28.09,1.59,56.54-.48,84.57-1.85,25,.06,48.86.79,73.73.19,6.44-1.38,14.77,6.13,17.5,5.35,1.94,13.88.23,19.61.08,13.19-.34,26.41-.08,39.58-.8,9.22-.5,29.51,3.08,32.23-7.15,1.53-5.74.18-13.73.49-19.78.29-5.48.75-11,1-16.44,1.24-27.52-.55-55.33-.87-82.87-.29-25.07-.06-50.07.32-75.14.4-27.36,2.62-55,1.19-82.32-1.31-25.08-.67-49.83-.3-74.91.23-14.83,2-30.64,18.77-35.46,11.5-3.31,26-.71,38-.49C1876,1673.91,1888.78,1673.79,1901.52,1673.9Zm95,181.58c-.94-42.49-5.21-83.92,3.27-126.16,9.57-47.61,35-93.6,76.91-119.64,39.71-24.66,95.29-28.47,140.56-21.83,21.85,3.21,41.11,12.46,60.2,23.13,21.49,12,38.5,25.79,52,46.69,26,40.25,29.32,87.63,29.27,134.17,0,48.74,7.27,97.84-4.5,145.94-5.94,24.27-16,48.78-30.59,69.12-14,19.53-33.1,41.77-55.34,51.69-17.47,7.79-37.83,10.51-56.47,14.66-26.8,6-49.66,3.85-76.13-2.36-24.1-5.65-46.63-10.69-67-25.58a166.92,166.92,0,0,1-47.76-54.74C1998.44,1949.09,1997.54,1901.41,1996.53,1855.48Zm99-10.16c1.26,31,.06,61.48,8.95,91.62,7.5,25.41,22.28,46.84,48.45,55.35,28.56,9.28,57,1.14,77.74-20,18.87-19.27,28.5-43.1,29.32-70,.47-15.17-.34-30.36,0-45.54q.23-9,.86-18c.18-2.56,1.56-6.65-.6-7.55l1.19.09c2.64-31.54,1.39-61.71-5.64-92.64-6.63-29.16-20.37-57.58-50.64-67.7-26.35-8.81-60.06-4.57-80.15,15.66-21.57,21.73-27.83,54.67-30.52,84C2092.16,1795.52,2094.46,1820.39,2095.48,1845.32Zm163-14.29,1.74.13A3.25,3.25,0,0,0,2258.47,1831Zm551.31-239.46c-8.62.14-17.23.48-25.85.72-9.79.27-23-2.22-32.16.64-10.86,3.38-6.79,19.78-6.91,28.66-.27,19.87-.49,39.73-.28,59.6.43,39.22-1,78.41-.45,117.62.18,14,6.34,43.46-10.94,48.78-12.09,3.71-18.22-7.43-23.77-15.87-5.15-7.82-10.44-15.55-15.58-23.37-12.15-18.49-22.87-37.82-35-56.29-11.1-16.82-21.93-34.35-34.39-50.17-11.82-15-22.19-30.39-30.75-47.51-8.7-17.39-20.7-32-31.91-47.73-3.06-4.3-5.88-11.45-10.93-13.58-4.29-1.81-11.3-.38-15.9-.43-8.74-.1-17.47-.39-26.21-.62-7.88-.2-24.53-3.34-31.11.94-7.65,5-4.58,22-5.13,30.09-1.27,18.61-1.56,37,.18,55.55,1.8,19.19,1.29,38.62,1.68,57.89.42,20.74-2.41,40.76-3.08,61.35s2,41.33,1.8,62.06c-.18,19.74-2.79,39.28-1.72,59.06,1.09,20.24,3.13,39.81,2.27,60.19-.79,18.64-.72,37.27-1.35,55.92-.28,8.31-2.58,19.91,0,27.79,4.08,12.49,21.71,8.4,31.8,8.06,7.76-.27,15.5-.79,23.25-1.15q7.74-.37,15.48-.51c4.94-.09,13.92,1.63,18.36-1.24,7.13-4.63,3.79-20.61,3.94-28.22.17-8.8.45-17.59.52-26.39.16-19.86-.94-39.64-1.12-59.49-.18-20.17,1.73-40.2,1.87-60.35.15-19.88-2.28-40.48-.71-60.28.76-9.7,7.56-18.2,18.26-16.3,11.2,2,17,16.49,22.88,24.88,11.43,16.39,22.41,33.05,33.6,49.61,22.32,33,46,65.34,66.83,99.34q15.38,25.13,32,49.46c5.49,8.06,10.67,16.37,16.25,24.37,6.46,9.27,12.46,7.11,23.43,6.68,7.69-.31,15.35-1,23-1.52q6.79-.46,13.6-.65c4.88-.14,13.66,1.71,17.84-1.24,6.79-4.78,3.56-19.87,3.5-27.22-.07-9.29-.18-18.58-.19-27.87,0-19.51-.42-39.07-.07-58.58.37-20.9,3.8-41.32,3.71-62.35-.16-38.21-2.43-76.19-3-114.38-.27-19.29.29-38.41,1.23-57.66s-.81-38.48-1.3-57.8a270.36,270.36,0,0,1,.91-32.58c.85-8.92,4.5-22.62,1.34-31C2835.38,1587.68,2818.57,1591.42,2809.78,1591.57ZM502.56,2539c10.43,27.29,10.15,58.88.36,86.18s-21.9,53.37-46.69,69.78c-47.07,31.16-105.55,27.43-159.43,26.44-22.36-.42-44.76-.24-67.13-.25-11.5,0-23,.17-34.45.63-8.35.34-25.33,3.95-31.8-1.74-6.9-6.05-3.76-24.08-4.22-32.91-.6-11.45-.81-22.89-.71-34.36.2-21.77-.09-43.87,1.71-65.55,3.7-44.75-1.94-89.37-1.3-134.08.34-23.22,3.32-45.94,2.52-69.3-.71-20.86-.64-41.72-.75-62.58-.07-12.46,0-24.92-.21-37.37-.18-10.07-2.41-22.67-.25-32.43,2.7-12.16,19.27-8.16,28.79-8.11q16.06.09,32.13.12c22.9.08,46,.49,68.85,1.38,26,1,52.22-.36,78,2.66,56.43,6.6,112.63,31.33,122.68,93.25,5,30.48.42,61.79-16.75,87.84-11.81,17.93-28.49,30-46,41.74,18.12,9.18,36.88,18.2,50.94,33.29C488.62,2514,497.44,2525.6,502.56,2539ZM264.09,2422.76c10.47,12.64,25.25,10.79,39.86,9.23,27.65-2.95,60.05,4.8,79.93-20,17.44-21.79,13.32-58.76-10-74.78-21.12-14.54-55-14.22-79.28-11.8-13,1.29-26.4,1.15-32.62,15.07-4.83,10.8-2.27,25.59-3.29,37.32C257.52,2392.43,254,2410.58,264.09,2422.76Zm131.7,112.61c-20.56-22.62-61.06-22.67-89-21.31-12.35.61-29.07-1.13-38.82,7.53-12.06,10.71-8,30.2-8.71,44.63-1.17,24.39-11.39,71,24.4,74.23,14.17,1.26,29-1.86,43.27-2,17.52-.12,37.1.21,53-8.2C412.59,2613.07,420.58,2562.64,395.79,2535.37Zm607.5,186.2c8.09.75,22.12,3.77,29.28-.54,8.83-5.31,5.7-19,5.54-27.69-.14-7.82-.44-15.64-.61-23.46s3.15-24.49-5.06-29c-7-3.82-20.2-1.15-28.17-1-18,.44-36,.33-54,.64-18.5.32-37,.24-55.52.63-20,.43-43.46,1.54-48-23.65-3-17,.2-36.75.56-54.1.41-19.76-2.37-44.83,23.92-46.92,19.39-1.54,39.18-3.9,58.65-2.76,18.22,1.07,36.29,1.94,54.55,2.47,6.92.2,20.8,3,26.5-1.36,7.84-6,4.27-21.74,4-30.37-.25-7.37-.71-14.74-1-22.11-.21-6.84,3-22.72-3.22-27.75-4.86-4-18.45-1.43-24.95-1.71-9.14-.41-18.26-.67-27.41-.63-14.64.07-29.26.83-43.9.84-23.37,0-66.37,7.85-68.15-26.48-.95-18.2.74-36.76.74-55,0-26.09,26.69-25.26,45.54-24.94,18.05.31,36.1.7,54.14-.09,18.32-.8,36.59-.93,54.92-.36,8,.25,18.11,2.22,25.85.43,12.58-2.9,9-18.56,9.25-28.36.22-7.49.71-15,1-22.46.34-8.26,4-23.52-3.06-29.32-6.29-5.15-19.51-2.56-27.14-3-9.06-.52-18.08-1.35-27.17-1.51-18.32-.32-36.22,2.43-54.47,2.85-19.24.44-38.32-1.64-57.53-1.8-18.14-.15-36.25,1-54.39,1.07-10,0-20-.17-30-.71-8.42-.46-22.42-3.42-30.19-.46-12.41,4.72-5.5,36.71-5.2,47.81.53,19.23-1.46,38.17-1.79,57.34-.38,22.6.11,45.21-.08,67.81-.29,36.85-3,74.27-.68,111.05,2.31,35.93,4.7,73.51,1.36,109.41-1.29,13.8-1.21,27.57-1.23,41.41l0,14.71c0,8.17-3.5,22.62,5.05,27.28,7.17,3.92,21,1.34,29.08,1.45,10,.14,20.08.29,30.12.25,18.15-.07,36.16-2.25,54.31-2.3,37.36-.12,74.76.38,112.13.79C985.81,2720.1,994.51,2720.77,1003.29,2721.57Zm672.49-27.5c2.3,5.71,7.08,14,5.16,20.23-4,12.66-24.84,7.42-34.79,6.86-13.23-.75-26.5-.56-39.74-.19-6.21.18-12.45.48-18.66.35-10.92-.21-12.83-4.66-15.67-14.43-3.27-11.25-5.78-22.68-8.8-34-3.79-14.22-6.78-30.2-22.47-35.67-11.87-4.14-27.64-1.06-40,.1-25,2.35-49.6.53-74.61-.45-14.44-.57-30-2.25-38.48,12-6.59,11.12-8.6,26.3-11.91,38.78-2.65,10-4.09,30.62-15.51,33.38-11.61,2.8-26.83-.49-38.8-.64-13-.16-25.56,1.09-38.45,1.89-7.13.45-16,2.13-20.64-4.7-4.77-7,.23-15.48,3-22.38,9.51-23.25,18.64-46.37,27.07-70.08,9.29-26.1,14.76-53.18,24.2-79.18,8.63-23.8,17.62-47.44,26.14-71.29,8.9-24.89,16.71-50.14,25.35-75.12,8.31-24,18.49-47.27,24.52-72,6.15-25.27,17.11-47.95,25.8-72.25,2.29-6.41,3.18-11.28,10.31-12.53,5.61-1,12.09-.2,17.84-.51,13.8-.76,27.58-1.22,41.4-.33,10.46.68,30.48-2.49,36.22,7.39s7.24,23.82,10.48,34.67c8.2,27.42,19.68,53.76,27.67,81.23,6.91,23.8,13.81,46.87,23.32,69.83,10.26,24.79,19.67,50.53,28.38,75.91,16.75,48.85,30.58,98.45,47.21,147.34q4.48,13.18,10.15,25.86c.33-.15.72-.29,1.11-.44C1670.58,2685.83,1674.74,2691.48,1675.78,2694.07Zm-165.56-188.62c-4.72-13.88-9.24-27.85-13-42-3.07-11.75-5.53-23.63-9.1-35.25-4.06-13.26-20.11-23-31.17-9.89-7.27,8.63-8.61,24.89-11.09,35.8-3,13-7,25.63-10.75,38.4-5.55,18.73-27,63,6.44,63.45,11.89.17,23.79.2,35.68.35,11.68.16,31,4.25,38.76-6.56C1525.05,2537.24,1514.56,2518.25,1510.22,2505.45Zm162.4,178.22a6.19,6.19,0,0,0,1.57-.76A2.89,2.89,0,0,0,1672.62,2683.67ZM2223.45,2629c3.74-8,22.42-44.3,1.66-44.3-13.85,0-27.69.33-41.54.8q-8.45.28-16.89.43c-7,.11-17.83-2-24,1.7-5.81,3.49-6.58,13.05-9,19-3.26,8.05-7.51,15.76-13.63,22-10.89,11.13-26.19,15.62-41.35,16.84-33,2.66-62.89-9.65-77.43-40.64-12.76-27.19-18-61.72-17.88-91.36.07-28.69-1.3-58.38,1.46-86.91,3-31.5,10-69.19,35.33-90.75,23.57-20.06,64.5-21.1,89.7-3.53,11,7.65,22.32,18.9,28.59,30.73,2.9,5.46,3,12.44,9.48,14.24,7.24,2,17.47.14,25.11.35,11.26.31,22.49.94,33.75,1.16,6.37.13,18,2.39,23.46-1.4,7.34-5.07,1.8-16.42-.35-22.94-10.12-30.64-27.4-66.35-53.63-86.2-29.44-22.29-65.25-29.77-101.48-30.26-18.59-.25-38.43-2.34-56.72,1.66-15.54,3.4-29.31,11.87-43,19.6-29.13,16.45-51,38.73-65.35,69.13-8.3,17.6-17.6,35.92-21.57,55.08-3.71,17.93-1.79,36.54-1.54,54.69.92,66.54-6.31,132.78,22,195.37,15.43,34.11,38.15,57,70.88,74.8,16.67,9.07,33.75,16.2,52.81,18,13.45,1.27,27,.86,40.49.93,35.85.16,71.78-3.91,100.57-27.18C2197,2681,2210.72,2656.17,2223.45,2629Zm615.1-240.41c.48-36.56,1.11-73.31-.29-109.85-.32-8.43,1.71-20.62-.82-28.58-3.14-9.92-18.61-6.61-27-7.29-18.72-1.52-37-.16-55.76.21-15.14.3-17.67,4.91-17.5,19.48.1,8.68.5,17.35.67,26,.41,19.88,1.09,39.8,1.31,59.68a529.79,529.79,0,0,1-2.51,61.33c-2.87,26.67-28.48,24.41-48.85,22.7a427.18,427.18,0,0,0-57.91-1c-17.22.89-43.37,6.59-52.48-12.63-4.6-9.68-2.49-21.87-3.74-32.32-1.17-9.75-2.34-19.29-2.44-29.13-.2-20.06.48-40.12.41-60.18,0-8.19-.17-16.38-.27-24.56-.08-7.07,2.89-20.42-1.87-26.45-4.53-5.73-18.36-2.5-25.17-2.17a323.48,323.48,0,0,1-33.54.25c-8.27-.45-16.53-1.68-24.83-1.53-15.9.3-14.38,12.92-14.22,25.16.24,19.45-.43,39.15,1.64,58.49a285,285,0,0,1-.21,59.41c-1.92,19.4-1.31,39.27-1.56,58.78-.53,40.42.43,80.9,1.3,121.31.43,19.91,2.46,39.54,2.31,59.52-.14,18.44-.37,36.88-.17,55.32.09,8.18.22,16.36.25,24.54,0,3.57-1.08,9.67,1.73,12.5,3.79,3.8,13.37,1.75,18.24,1.78,17.22.1,34.44.13,51.66.36,7.69.1,22.44,3.15,27.28-4.56,4.05-6.43.91-21.71.66-29.44-.63-19.78-.6-39.55-.45-59.34q.21-28.79,0-57.57c-.12-18.1-4.85-45.71,16.76-53.58,16.68-6.08,40.4,1.11,58,1.48,20.11.43,40.12-1.46,60.21-1.37,10.13,0,19.7,2.44,26.29,10.75,7.39,9.31,5.39,22.39,4.85,33.48-1,19.67-1.58,39.2-1.82,58.9-.23,19.48-1,39,.31,58.48.55,8.2,1.3,16.36,1.51,24.58.13,5-.88,11,1,15.77,2.86,7.31,9,5.89,15.73,5.78,18.38-.28,36.74-.45,55-2.23,7.85-.77,22.51,2.45,25.83-6.55,2.94-8,.37-21.25.48-29.83.23-19-.12-37.83-.69-56.78-.62-20.25,1.66-39.87,2.36-60,.69-19.95-.62-39.94-.62-59.89C2839.57,2468.11,2838,2428.32,2838.55,2388.62ZM1301.26,1368.82c-32.09,15.48-66.48,30.38-101.81,38.06-18.43,4-37.38,4.84-56.1,7-17.84,2.1-35.35,5.45-53.4,5.26a412.87,412.87,0,0,1-53.18-3.86c-18.76-2.67-37.13-8.52-55.54-12.77-56.18-13-111.44-34.36-155.5-70.07-21.66-17.54-37.43-37.58-51.9-60.56-8.09-12.84-16.52-25.82-21.46-40.08-4.71-13.58-5.59-27.92-5.81-42.1-.47-31.56,3-60.56,17.36-89.47,13-26.09,35.14-46.88,57-66.74,45.57-41.39,106.28-68,167.85-81.36,28.94-6.27,60.17-9.15,89.75-12,32.08-3,66.51,1,97.78,7.68,31.51,6.74,63.21,13.22,92.79,25.69,27.07,11.41,53.78,25,77.34,42,48.16,34.62,87.79,84.56,93.57,142.57,3,30.13,2.67,62.56-12.24,90-12.21,22.48-26.89,46-45.22,64.54-12,12.11-24.34,24.19-38.58,34C1330.81,1355.76,1315.72,1361.84,1301.26,1368.82Zm2.15-134.38c12.47-17.28,22-37.37,20.82-58.63-1.1-19.77-11.46-37.49-23.15-53.5-26.28-36-64.12-56.87-108.51-68.82-39.15-10.54-82.3-18.08-123-15s-79.14,14.69-116.18,30.54c-35.81,15.32-66,43.59-80.54,78.27-13.72,32.86-6.41,71.81,17.59,98.73,49.86,55.94,136.67,72.82,210.84,72.76,21.27,0,42.56-.42,63.28-5.41,15.88-3.82,31-9.78,46.31-15.31,18-6.54,36.41-12.89,52.23-23.52C1279.16,1263.74,1292.38,1249.71,1303.41,1234.44ZM2837.07,944.39c-6.9-4.9-21.13-2.31-29.52-2.89s-16.74-1.42-25.17-1.61c-11.41-.24-22.85-.06-34.26-.06q-95.51.06-191,.23c-17.62.05-35.16,1.38-52.78,1.49-18.32.12-36.59-.94-54.9-1-29.05-.11-58,2.37-87.15,2.36q-16.86,0-33.71,0-11,0-22,.06c-8.12,0-21-2.2-28.4.37-9.29,3.21-5.77,19.33-5.78,26.7,0,11.17-.2,22.37.17,33.54.22,6.53.58,13.05.67,19.58.19,13.66,3,15.31,17.52,15.34,17.66,0,35.32.34,53,.3,36.52-.08,72.91-1.57,109.47-1.21,9.69.09,20.38-1.33,28.91,3.83a27.85,27.85,0,0,1,13.17,23.74c0,68.31,2.12,136.63,1.69,204.94-.23,35,2.5,70.28.37,105.24-.75,12.22-8.53,40.54,8.89,43.54,7.85,1.35,17.7-.5,25.64-1.12a323.5,323.5,0,0,1,33-.91c12.16.32,42.9,8,51.2-1.64,5.36-6.25,2.54-18.74,2.75-26.44.19-7,.5-14,.64-21,.67-34.59-.79-69.55-2.23-104.11-1.47-35.29-1.15-71.07-.1-106.37.52-17.28.62-34.53.79-51.81.07-6.62.2-13.24.28-19.86.12-9.2-1.54-19.87,1.44-28.72,7-20.7,31.34-17.53,49.95-17.23,18.32.29,36.65.69,55,.18,18.12-.51,36.16-1.1,54.29-1.25,7.93-.06,15.85-.27,23.78-.45,8.65-.19,21.17,1.91,29.29-.54,12.72-3.84,5.58-33.85,5.5-44a153.85,153.85,0,0,1,1.77-24.82C2840.29,961.68,2844,949.32,2837.07,944.39ZM1713.21,1336.6c-.12,15.1.58,30.18,1,45.27.22,8.76,2,19,.31,27.62-2,10.35-10.85,9.06-20.49,9.12-17.22.12-34.48.17-51.69.5-10.41.2-38.49,5.6-45.33-1.6-5.52-5.82-2.7-19.13-3.51-26.35-.64-5.71-1.77-11.37-2.37-17.09-1.62-15.51-.48-31.23,0-46.77,1-31.41,1.33-62.86,1.72-94.28.21-15.88.77-31.86-.57-47.71-1.27-15-2.7-30-1.27-45,1.52-15.88,4.18-31.06,3.18-47.14s-4.53-31.51-4.08-47.81c.85-30.27,3.42-60.53,4.14-90.85.27-11.26,3.45-13.87,15.91-13.67,7.6.13,15.16.57,22.73,1.1,17.63,1.23,35.27,1,52.94,1.2,33,.46,66-.35,99-.52,16.55-.08,32.86-2,49.37-2.5,23.91-.73,47,3,70.72,5.2,3.61.33,13.29,3.24,14.75-.56,0,.62,0,1.27-.1,1.82,24.25,2,47.37,4.87,70.24,12.87,40.21,14.06,79.45,31.2,113.23,55.9,34.47,25.2,53.63,72.57,52.62,112.06-1,38.79-18.73,78.36-51.63,103.27-14.73,11.14-29.49,23-45.4,32.69-8.08,4.92-18.82,8-22.33,17.07-2.5,6.48-.14,12.57,3.56,18.17,18.17,27.49,36.12,55,58.14,80.2,7.21,8.25,32.75,30.27,17.22,39.57-6.61,4-19.56,1.3-27.25.85-6.74-.39-13.46-.9-20.22-1.09-17.37-.49-34.79-.66-52.18-1-10.16-.19-21.35,1.35-30.16-4.27-7.34-4.67-11.86-12.92-17-19.44-10.18-13-20.38-25.91-30.47-38.93-9.43-12.18-18.29-26-29.08-37.14-15.41-15.93-38.83-9.89-59.15-9.38-16.6.41-32.78-2.46-49.32-2.84-17.36-.39-34.52,1.51-51.85,1.75C1727.65,1307.17,1713.36,1316.59,1713.21,1336.6Zm17.65-128.83c12.06,5.39,27.63,2.2,40.36.32a184.83,184.83,0,0,1,41.33-1.16c31.93,2.47,65.67,4.44,97.51.15,18.36-2.48,36.24-7.67,54-12.36,16.93-4.46,34.33-9.73,47.91-20.32,25.76-20.09,34.27-54,17.51-81.42-17.5-28.58-50.7-35.13-82.65-43.4-21.56-5.59-42.71-9.51-65.22-9.47-18.78,0-37.6,1.42-56.34-.28-16.29-1.48-32.35-1.78-48.73-1.9-13.62-.09-32.66-3.5-44.92,2.3-14.53,6.88-15.48,21.08-15.88,34.15-.34,11.1-2.11,22-2.82,33.12-1.1,17.16-.45,34.5-.44,51.68C1712.52,1177.18,1709.34,1198.15,1730.86,1207.77Zm188.84-263a2.75,2.75,0,0,0,.19-1.11A4.29,4.29,0,0,0,1919.7,944.73Zm-1252,23.89c-.34-6.59,2.59-23.25-4.53-27.2-6.82-3.78-16.16-.77-31.18-1-29.52-.44-59.44,1.15-89,1.17-37.5,0-74.82-1.55-112.37-1.07-46.1.59-92.11,0-138.19-.14-23.08,0-46.16-.36-69.24-.61-8.6-.09-17.18-.45-25.77-.85-9-.42-26.94-1.77-33.53,4s-2.6,19.8-1.84,27.37a284.65,284.65,0,0,1,1.7,28.74c0,38.43,2.07,76.86.19,115.3-1.82,37.12-3.89,74.46-1,111.63,2.81,36.8.3,74.07-.31,110.94-.33,19.23.54,38.36,1,57.58.11,4.45-1.51,11.58.6,15.51,2.74,5.11,7.7,4.12,13.26,4.07,10.29-.09,20.56-.58,30.85-.77,21.72-.4,44,.58,65.67-1,13.81-1,9.56-13.9,9.93-23.37.31-7.86.84-15.7,1-23.57.36-19.34-1-75-1-93.76,0-10.17-4.49-21.77,26.84-21.76,31.51,0,131.3,1.6,162.73,2.3,10.94.25,21.89,0,32.83-.16,8.8-.17,28.18,2.6,35-2,7.92-5.3,4-19.68,3.67-27.49-.34-8.36-1-31.39-1.56-39.74-.59-9.44-.47-18.88-.89-28.32-.68-15.12-12.79-12-26.63-11-20.67,1.5-41.22,1.6-61.95,2.16-21.47.57-42.52,0-63.9-1.49-22-1.54-44.28-.17-66.36-.05-12.15.06-23.14-.61-31.65-9.2s-7.79-31.72-8.18-42.31c-.65-17.46-7-40,11.58-52.08,16.08-10.42,41.91-5.16,60.76-4.7,22.27.53,44.1-1.69,66.29-2.11,43.63-.83,87.31,0,131-.44,21.12-.22,42.17-2,63.31-1,8.93.42,17.73,1.71,26.64,2.37,5,.38,12.54,1.8,17.44.57,8.44-2.13,7.17-9.35,7.18-15.63C668.15,1002.6,668.58,985.6,667.69,968.62ZM315.34,2887.33c-9.23-.94-18.91-1.77-28.18-1.77-16.21,0-32.43,2.68-48.65,2.63s-32.43-1.85-48.64-1.68c-16.58.17-28.88,10.26-29.7,27.72-.38,8.32-.47,16.71-.47,25,0,17.93.09,35.87.09,53.81s1.07,35.88,1.07,53.82c0,10.42-2.05,25.79-.82,39.84,1.28,14.61,4.33,29.09,18,33.35,11.22,3.49,24.61-2,31.18-11.71,4.54-6.73,4.55-14.38,4.55-22.09,0-8.8-1.58-17.59-1.58-26.39,0-6.54,1.25-13.27,5.79-18.65,7.91-9.39,29.22-5.57,39.82-5.57,13.87,0,28.08,1.53,41.92.7,28-1.66,27.88-42.77-.09-44.43-13.5-.81-27.28.09-40.81.09-10.77,0-33.31,3.59-41.36-6-7.69-9.13-3.53-30-3.53-41.08,0-9.65,7.41-12.84,15.93-13.35,13.94-.82,27.89-2.46,41.91-2.05s28.06,1,42,.18C340.87,2928.21,342.67,2890.1,315.34,2887.33Zm391.57,187.83c-24.51,0-49.65,3.8-74.11,2.22-22.08-1.44-14.72-33.76-14.72-49,0-14.72-1.27-29.44-1.27-44.16s.39-29.44.39-44.17c0-20.62,3.28-54-27.14-54-32.68,0-27.88,39.45-27.88,61,0,16.79,2.22,33.58,2.22,50.37s-2.54,33.58-2.54,50.37c0,11.32.09,22.65.09,34a66.26,66.26,0,0,0,3.17,19c8,25.57,42.4,18.8,62.81,18.8,13.29,0,26.58.26,39.87.29s26.59.9,39.87.76,26.79-7.25,26.79-22.6C734.46,3082.21,720.41,3075.16,706.91,3075.16Zm483.53-84.84a123.44,123.44,0,0,1-5.64,50.69,114,114,0,0,1-26.13,43.52,120.85,120.85,0,0,1-47.87,31c-18.16,6.41-37.6,10.15-56.92,8.86s-38.14-7.6-55.08-16.71a114.91,114.91,0,0,1-38.21-32.52c-10.17-13.59-17.91-28.92-21.59-45.56-3.59-16.23-2.38-33.22.87-50.3s8.9-32.59,18.6-45.8c9.88-13.46,22-25.69,36.58-34.11a131.78,131.78,0,0,1,47.61-15.91c16.88-2.32,34.17-.93,50.61,2.51,16.7,3.48,31.91,10.95,45.93,20.35,13.82,9.26,27.34,19.81,36.41,34.8S1188.7,2973.3,1190.44,2990.32ZM1125,2963.13c-10-16.7-25.78-30.89-47.53-34.48-15.1-2.48-30.68.7-44.18,6.64s-24.15,16.49-31.75,30.12a78.45,78.45,0,0,0-9.64,44.32c1.2,15.59,5.89,30.91,15.7,42.87,11.07,13.5,26.83,23,43.74,25.76a78.26,78.26,0,0,0,50.25-9.19c19-10.83,30.07-28.94,33.93-48.05C1139.44,3001.46,1135.17,2980.26,1125,2963.13Zm497.61-12a90.88,90.88,0,0,1,.07,41.27c-3.2,13.62-10.5,25.63-20.51,35.42-6.89,6.72-25.11,13.32-20.49,24.43,4.41,10.62,14.17,20.46,20.4,30.17,10.08,15.73,2.13,36.89-18.23,36.87-15.13,0-21.14-13.63-28.59-24.39-6.91-10-13.36-20.65-20.83-30.23-9.6-12.3-24.67-10.95-38.76-10.71-18.15.32-20,13.74-20,28.48,0,16.06-1.53,32.13-20.51,36a27.68,27.68,0,0,1-33.56-25.89c-.77-17.94,2.28-36.14,2.28-54.09,0-14.68-1.33-29.37-1.33-44.06s1.32-29.37,1.32-44.06c0-15.29-5.44-40.92,5.14-53.74,8.29-10.05,20-10,31.73-10,14.65,0,29.3-.11,43.94-.11,17.49,0,35.68.1,52.67,3.72s31.94,12.1,45.1,25.5C1612.26,2925.82,1619.39,2937.64,1622.56,2951.16Zm-64.41-10.33c-16.38-13.58-41.3-10.95-61.23-10.95-10.2,0-20.14,4-21.18,15.7-.48,5.51,0,11.38,0,16.92,0,11.77-4.72,39.82,6.67,47.86,6.17,4.36,16.64,2.74,23.78,2.74,9.43,0,18.87-1.84,28.21-3.32,14.81-2.36,29.64-8.56,34.67-23.4C1574.15,2971.35,1570.75,2951.28,1558.15,2940.83Zm354-20.44c0-16.76-7.27-32.91-26.79-33.14-22.78,0-27,20.09-27,37.89,0,19.65,1.28,39.31,1.28,59,0,17.55-1.12,35.11-1.15,52.67s-1.6,35.13-1.47,52.68c.14,19.66,17.85,36.07,38.38,27.39,15.84-6.69,17.19-20.63,17.19-35.07,0-19.21,0-38.42,0-57.63s.36-38.42.36-57.63C1912.93,2951.14,1912.15,2935.77,1912.15,2920.39Zm468.09,27.25c10.09,19,13.44,41.57,12,63.6s-8.39,43.37-21.23,60.76c-13.27,18-29.09,30.09-47.36,37.16-18.58,7.18-39.24,8.66-60,9.68-20.48,1-41.26,1.55-61,1.55-7.27,0-15.34,0-22.55-1.45a28,28,0,0,1-22.72-26.67c-.63-15.36.76-30.93.76-46.31q0-33,0-66c0-22,.23-44,.23-66,0-30.69,33.58-27.09,54.4-27.09,22,0,44.44-1.65,66.38.12,20.48,1.64,41.26,6.84,58.83,16.82A109,109,0,0,1,2380.24,2947.64Zm-44.43,37.2c-4.7-21.8-19.71-38.4-40.45-46.6-15.59-6.15-31.58-6.66-48-6.66-11.8,0-32.14-4.09-35.38,11.63-1.44,7-.23,15.28-.23,22.31,0,14,1.09,27.94,1.09,41.91s-1.37,28-1.37,41.92c0,11.64.21,24.52,15.72,26,11.29,1.06,23.09.37,34.44.37,23.14,0,46.4-7.27,61.48-25.67C2337.73,3032.21,2340.57,3006.91,2335.81,2984.84Zm495.26,85.77c3.17,7.11,6.34,15.65,6.41,23.6.22,26.19-34.55,34.78-47.29,12.25-6.31-11.16-9.17-35.37-25.65-35.37-24.48,0-49-.43-73.44-.43-10.94,0-22.59-2.72-28.65,8.77-5.94,11.29-7.33,28.19-18.12,36.26-17.95,13.42-43.51-3.31-39-25.42,1.18-5.81,4.2-11.47,6.59-16.83,5.57-12.51,10.87-25.15,16.45-37.67s11.64-24.82,17.22-37.34,9.16-25.92,14.74-38.44,11-25.13,16.53-37.64c2.5-5.62,7.25-10.39,10.56-15.61,12.7-20,39.85-26.52,58.73-12.29,15,11.31,21.73,36.81,29.08,53.24,6.35,14.22,12.41,28.58,18.76,42.8s13.29,28.19,19.64,42.41C2819.27,3045.54,2825.41,3058,2831.07,3070.61Zm-78.81-51.35c-5.84-14.09-11.28-28.35-17.11-42.45-2.89-7-11.41-37.54-21.77-19.5-8.28,14.4-12.56,32.23-18.91,47.57-1.83,4.4-6.88,9.09-7.72,13.8-1.85,10.35,7.83,11.19,15.19,11.19,10.74,0,21.48-.3,32.21-.3C2740.28,3029.57,2757.25,3031.33,2752.26,3019.26ZM648,762.69c9.12,0,18.22.83,27.86,1.71s19.71,1.79,29.81,1.79c9.66,0,19.31-.13,29-.26,18.88-.25,38.06-.24,56.91.82,9.61.54,19.53,1.1,29.44,1.1s20-.77,29.66-1.52,18.81-1.45,28-1.45c9,0,18.09-.5,26.84-1,8.45-.46,17.2-.94,25.65-.94a83.86,83.86,0,0,1,9.82.84c9.46,1.16,21.23,2.63,32.38-4.18,28.45-17.35,27.5-51,26.74-78-.12-4.52-.25-9-.25-13.38a79.24,79.24,0,0,1,1.42-12c1.36-8.23,2.9-17.57.6-26.64-6.28-24.76-29.26-42.09-52.27-39.44-21.78,2.51-38.32,23-41.14,51.06-1.53,15.2-9.79,15.65-12.9,15.82-16.29.88-33.78,1.3-53.46,1.3-12.46,0-25.3-.66-37.71-1.3-6.68-.35-13.35-.69-20-.94-8.67-.33-10.68-2.82-10.52-26.57l0-4.43c0-13.67-.36-27.5-.7-40.88-.34-13.22-.7-26.9-.7-40.27,0-7.19.54-13.07,3.18-18.37,3.44-6.89,6.92-8.23,11.77-8.23,11.11,0,22.22.24,33.34.48s22.53.49,33.8.49c3.61,0,7.48.26,11.48.53,17.36,1.16,38.94,2.57,53.92-14,16.87-18.67,15.67-44.16,9.51-60.33C922.74,427,906.35,409,884.85,408.43c-11.25-.31-22.32,1.17-33,2.57-9.5,1.25-18.47,2.43-27.34,2.43-5.17,0-10.34-.33-15.51-.65-5.47-.34-11.13-.69-16.85-.69-5.07,0-10.29-.37-14.17-3-3.35-2.31-6.45-6.21-6.45-19,0-5.87.53-11.82,1.09-18.13.58-6.54,1.18-13.3,1.18-20.22s-.43-13.72-.84-20.33-.81-12.68-.81-18.84c0-10.43,1.33-14.75,5.67-18.49,3.18-2.75,6.29-3,13.14-3,4.89,0,9.78.29,14.67.58,16.59,1,33.17.54,49.76.37,11.2-.12,22.4-.24,33.6-.24h1.39c7.66,0,9.49.25,11.68,3.18a23.38,23.38,0,0,1,4.68,12.46l.16,1.62c1.13,11.36,2.53,25.5,11.71,35.52,16.26,17.76,44.23,18.75,63.67,2.23,16-13.55,17.87-33.82,17.93-47.9,0-6.05.67-12.21,1.35-18.74a207.55,207.55,0,0,0,1.47-21.52,93.56,93.56,0,0,0-9.78-42.78c-9.57-19.2-25.74-29.88-49.43-32.66-11.47-1.35-23.32-.39-33.76.46-6,.49-11.61.95-16.6.95-7.84,0-15.68.25-23.53.5-8.41.27-16.84.57-25.24.48-7.91-.06-16.09-.53-24-1-8.08-.47-16.44-.94-24.8-1-7.63-.07-15.26-.3-22.89-.54-8.67-.26-17.33-.53-26-.55-7.49,0-15-.36-22.48-.69-8.63-.38-17.56-.78-26.48-.7l-4.63,0c-14.8.12-29.61.23-44.4.61-21.35.55-34.31,18.72-39.32,35.54-6,20-.11,39.21,15.64,51.4,5.46,4.23,11,6.3,16,8.12,7.6,2.82,10.78,4.2,13.14,10.26a25.78,25.78,0,0,1,2.09,10.13c0,10.85-.17,21.7-.4,32.55-.2,9.71-.4,19.42-.41,29.13,0,10.07-.23,20.15-.44,30.22-.22,10.52-.43,21-.43,31.55,0,9.94.66,19.84,1.3,29.41s1.26,18.68,1.26,27.82c0,9.56.06,19.12.12,28.68s.12,19,.12,28.54c0,9.77.39,19.59.76,29.08.37,9.26.75,18.84.75,28.15,0,8.21-1,16.54-2,25.34-1.07,9.1-2.18,18.51-2.18,28.11a51,51,0,0,0,.45,6,21.86,21.86,0,0,1,.28,3.51c-.46,10.94-4.92,14.18-11.46,15.68-23.09,5.28-37.74,21.38-39.2,43.06a46.16,46.16,0,0,0,11.69,34.43A42.39,42.39,0,0,0,648,762.69Zm466.8-354.23c7.35,18.47,20.37,31.77,31.85,43.51l.85.86A218.81,218.81,0,0,0,1187,485.1c13.65,8.61,27.91,14.28,41.71,19.76,4.28,1.7,8.55,3.4,12.81,5.19,7.78,3.27,15.7,7,23.37,10.63,9.68,4.57,19.7,9.3,30,13.37l6,2.34c12.11,4.68,24.63,9.53,35.07,17,13.58,9.72,22,21.14,25.62,34.93,4.67,17.59,4.07,34.75-1.63,47.08-4.65,10-14.61,17.44-32.28,24-17.32,6.44-34.25,12.08-50.92,10.2-17.29-1.94-34.38-10.44-50.41-19-12.25-6.54-17.68-14-19.35-26.51-1.56-11.7-3.5-24.1-8.49-35.8-9-21-25-33.54-42.82-33.54h0c-19.13,0-36.83,12.68-45.11,32.28-4.59,10.89-6.83,23.22-6.83,37.69a160.76,160.76,0,0,0,1.38,18.45c.59,5.2,1.15,10.11,1.22,14.87.27,19.68,7.34,36.79,20.45,49.46h0c16.31,15.73,32.62,27.86,49.87,37.06,16,8.55,35.17,18,55.76,23,22.82,5.53,41.48,8.15,58.71,8.25h.79c19,0,37.26-4.15,55-8.17l2.8-.63c16.56-3.75,31.76-11.5,47.17-19.78,15-8.05,30.48-16.38,43.43-30.58,11.38-12.48,20.2-28.08,27.76-49.11,6.32-17.58,9.54-36.14,9.86-56.74a191.14,191.14,0,0,0-10.41-65.35c-6.63-19.29-19.19-43.29-29.87-57.06-12.67-16.34-29.65-28-44.6-37.24-10.54-6.52-21.75-9.95-32.59-13.26-6.13-1.87-11.92-3.64-17.37-5.89-12.64-5.23-25.38-10.25-38.13-15.27L1292,411.66c-19.56-7.75-34.59-15.41-47.29-24.12-9.41-6.46-21.38-17.3-25-32.29-3.72-15.49,2.73-33,10-44.17,7.75-11.91,18.7-18.83,36.62-23.16s33.89-5.75,47.13-4.17c14.74,1.76,37,4.43,49,15.14,5.38,4.82,6.58,12.12,8.09,23.64.34,2.59.69,5.22,1.11,7.84,2.91,18.17,11.29,32.57,24.9,42.8,18.06,13.58,41.37,14.29,56.69,1.72,21-17.21,19.71-45.95,18.7-69-.22-4.89-.43-9.7-.43-14.27v-.94c0-13.78,0-29.39-8.45-43.3-9.68-15.91-26.27-26.29-39.6-34.63l-3-1.9c-15.57-9.81-32.81-15.19-49.47-20.39l-7.09-2.22a240.23,240.23,0,0,0-58.56-11.28c-4.63-.29-9.28-.73-13.93-1.17-15.07-1.41-30.65-2.87-46.24.37-17.34,3.6-35,10.85-57.41,23.52-12.51,7.09-30.82,18.41-45.29,34.69-13.78,15.51-21.18,35.63-27.58,54.92s-12.15,38.5-11.56,59.14C1103.82,363.89,1106.16,386.9,1114.76,408.46Zm438.91-114.94c0,18.68,7.1,36.63,19,48,9.58,9.17,21.33,13.5,34,12.51,16.16-1.25,31.06-13.69,38.89-32.46a90.27,90.27,0,0,0,4.35-14.81c2.3-10,3.54-13.73,8.31-15.65,4.21-1.69,10.46-1.83,16-1.83a61.91,61.91,0,0,1,11.88,1.71,78.9,78.9,0,0,0,16.24,2.16c12.21,0,14.26,1.74,14.61,12.41.79,23.88,1.19,49.42,1.19,75.91,0,11.27-.29,22.53-.57,33.79-.29,11.45-.57,22.91-.57,34.37,0,11.76.81,23.52,1.59,34.89.76,11,1.54,22.31,1.54,33.26,0,9-.75,18.05-1.56,27.6s-1.64,19.56-1.64,29.58.95,20.07,1.87,29.71,1.76,18.5,1.76,27.47c0,7.59-.1,15.31-.38,22.88-.39,10.27-3.39,11.66-14.8,15.35-6.83,2.22-15.34,5-22.3,11.77-13.74,13.42-18.12,34.48-11.17,53.65,6.48,17.88,20.93,29.43,37.71,30.15.73,0,1.46,0,2.19,0a94.87,94.87,0,0,0,16.93-2c13.92-2.5,24.8-1.4,37.43-.56,8.22.55,16.72,1.11,25.25,1.13,9,.06,18.1-.45,26.85-.89,7.61-.39,15.21-.79,22.82-.86,14.3-.13,27.11-6.57,35.16-17.66,8.17-11.26,10.37-25.84,6.2-41.07-4.63-16.85-15.89-27.52-33.45-31.7-9-2.13-13-6.42-13.87-14.82-1.64-15.65-1.51-32.63-1.38-49.06q.06-6.72.07-13.3c0-10.6.11-21.2.21-31.79s.21-21.36.21-32-.15-21.38-.3-32.07-.29-21.17-.29-31.75-.06-21.32-.12-32-.12-21.23-.12-31.85c0-10.41.42-21.11.82-31.45.42-10.57.84-21.51.84-32.37,0-3.35-.13-7-.27-10.83-1-28.59,1.42-37,11-37.57l6.7-.39c12.79-.77,26-1.55,38.68-1.31,6.72.14,9.51,5.5,10.66,10a72,72,0,0,1,1.35,7.45c.75,5.1,1.6,10.89,4.28,16.85,4.35,9.67,12.15,15.12,18.42,19.5l.65.46c13.77,9.63,30.55,10.69,44.89,2.85,16.22-8.88,26.3-27.33,26.3-48.15,0-7.59.44-15.13.91-23.12.52-9,1.06-18.3.92-27.66-.57-36.62-25.16-66-56-67a263.08,263.08,0,0,0-28.3,1.19c-17.46,1.39-33.35,1.16-49.79.92-18.82-.27-37.93-.23-56.12.83-8.91.52-18.13,1.05-27,1.05-8.54,0-17.16-1.11-26.3-2.29-9.4-1.21-19.13-2.46-29-2.46-9.55,0-19.09.57-28.32,1.13-8.91.53-18.12,1.09-27,1.09-18.86,0-37.48.33-59.63.84-27.42.62-49.52,20.81-55,50.22-3.33,17.89-3.3,37.88-3.28,55.51Zm565.23,379a43.45,43.45,0,0,0-28,22.17c-6.06,11.64-6.82,25.62-2.12,39.37,11.05,32.37,39.35,31.94,58.08,31.68,15.32-.24,29.89.12,44.78.34,13.18.2,26.37.4,39.55.4,2.11,0,4.31.05,6.55.1s4.65.09,7.13.09c18.21,0,41.46-2.65,52.24-28.47,5.92-14.2,5.13-32-2.07-46.51-6.1-12.28-15.73-20.47-27.1-23.05h0l-2.47-.55c-14.84-3.3-17.31-5.06-17.63-12.49,0-1.6.19-12.32.41-22.68.36-17.27.82-38.76.82-51.06,0-10.6.2-21.2.4-31.8s.4-21.5.4-32.25c0-10.37.55-21.07,1.08-31.42.55-10.64,1.11-21.65,1.11-32.62V389.76c0-12.41-.55-24.89-1.09-37-.53-11.81-1.08-24-1.08-35.91,0-2.85-.14-6-.29-9.29-.41-8.86-1-21,2.71-25.7,1.09-1.4,2.73-1.85,7.8-2.69,2.13-.36,4.27-.72,6.36-1.26,14.6-3.78,24.84-11.28,30.45-22.3,6.16-12.09,6.79-26.77,1.72-40.26s-14.83-23.68-26.86-28.18c-6.72-2.51-14.73-5.07-23.2-5.07-6.15,0-12.22.43-18.08.85s-11.16.8-16.55.8c-12.73,0-25.45.23-38.17.46s-25.19.46-37.78.46a43.09,43.09,0,0,1-5.63-.61c-4.67-.69-10.49-1.57-16.53.11-11.07,3.06-20.06,10.93-25.31,22.17-6.19,13.25-6.32,29.61-.36,43.77,5.73,13.58,14.63,21.87,27.23,25.33,1.6.44,3.23.82,4.88,1.19,4.84,1.09,7.91,1.87,9.81,3.85,2.75,2.86,2.81,10,2.85,15.76.06,8,.3,15.93.54,23.89.26,9,.53,18.09.53,27.13,0,10.47.25,20.94.5,31.41.24,10.28.49,20.56.49,30.84,0,10.08-.53,20.48-1,30.53-.52,10.35-1.06,21.05-1.06,31.72,0,10.43.16,20.87.32,31.3s.32,20.63.32,30.94c0,14.21.17,28.48.35,42.77l.25,22.84c.19,18.37.39,37.37-.35,55.76C2135.44,663.79,2132.65,669,2118.9,672.56Zm760-473.14c-8.36-10.44-20-16.7-32.06-17.21-13-.53-26.19-.25-38.91,0-7.35.16-14.7.32-22,.32-12.5,0-25,.78-37.14,1.54-10.58.66-21.52,1.34-32.15,1.47-23.59.29-40.87,13.36-45.1,34.09-2.83,13.9,1.65,29.29,12.29,42.24,6.59,8,13.61,11.28,19.8,14.16,2,.95,4.16,1.92,6.33,3.15,12.47,7.09,13.26,22.51,13,45.24l0,6.53c0,8-.07,16-.14,24s-.14,16.11-.14,24.17c0,7.75-.37,15.77-.71,23.53-.36,8-.73,16.31-.73,24.59,0,14.34-.22,28.68-.44,43s-.43,28.92-.43,43.38c0,7.42-.75,11.89-1.48,14.47-.22-.34-.45-.72-.67-1.13l-2.33-4.46c-10.09-19.22-20.53-39.09-30.42-58.83q-6.1-12.2-12.16-24.41c-6.59-13.25-13.17-26.5-19.85-39.67-4.41-8.7-8.93-17.32-13.44-25.94s-8.93-17.08-13.3-25.69c-4.27-8.43-8.32-17.37-12.24-26-4-8.86-8.18-18-12.68-26.9s-9.41-17.54-14.15-25.91c-4.61-8.14-9.38-16.56-13.64-25l-1.44-2.84c-8.87-17.58-17.26-34.17-35.16-45.56C2523.6,187,2509,182.28,2494,181.85c-13.92-.4-28-.4-40.44-.4-3.44,0-6.89-.1-10.35-.2-5.59-.16-11.37-.33-17.19-.09-12.94.51-25,7.39-33,18.86a52.74,52.74,0,0,0-7.2,44.66c4.33,15.51,14.33,26.93,27.44,31.36a46.23,46.23,0,0,1,13.89,7c3.4,2.55,4.93,5.09,5,13.37.06,11.81.39,23.61.72,35.42.37,13,.75,26.49.73,39.65,0,12.05-.14,24.1-.27,36.15-.13,13-.27,26-.27,39,0,10.37.71,35.21,1.45,61.52.71,25,1.45,50.82,1.45,60.85s-.31,20.15-.62,30.23c-.32,10.32-.63,20.63-.63,31,0,1.76,0,3.61.05,5.52.15,10.64.34,25.22-5.09,30.89-.46.48-2.2.63-4.79.79a40.74,40.74,0,0,0-9.43,1.43c-12.67,3.8-24,15.66-29.63,30.94a52.52,52.52,0,0,0,4.5,44.8c7.26,12.08,18.54,19.72,30.94,21,3.73.37,7.46.52,11.17.52,8.32,0,16.56-.76,24.61-1.51,7.82-.72,15.2-1.41,22.42-1.41,14.07,0,28.14-.11,42.21-.22q15.49-.13,31-.21c8.9,0,29.72-.1,41-21.35a51.42,51.42,0,0,0,1.89-44.09c-5.6-13.45-16.07-23.13-28.73-26.56-14.83-4-18.06-5.82-18.42-15.65-.1-2.7.27-17.48.62-31.78.44-18,.94-38.4.94-49.5,0-10.53-.78-35.74-1.6-62.42-.79-25.34-1.6-51.54-1.6-61.7,0-7.91,1.13-26.31,1.21-27.43.19-2.45,1.49-3.26,1.27-3.44a3.8,3.8,0,0,1,.83,1.2c4.5,8.87,9.15,17.66,13.8,26.43s9.17,17.32,13.62,26.09,9.23,17.67,14,26.43c4.63,8.6,9.26,17.19,13.69,25.93,4.67,9.2,9.25,18.46,13.83,27.72s9.16,18.52,13.82,27.72,9.46,18.38,14.25,27.53,9.51,18.2,14.16,27.38,9.28,18.39,13.9,27.61,9.26,18.48,13.94,27.7c2.55,5,4.89,10.2,7.25,15.37,2.89,6.38,5.89,13,9.27,19.36,11.95,22.56,33.75,36,59.8,36.83,26.91.93,48.57-11.37,61.1-34.53,11.74-21.69,12.72-44.76,12.72-64.67q0-17.92-.11-35.84c0-11.91-.11-23.82-.11-35.72,0-11.27-.06-22.55-.12-33.82s-.11-22.47-.11-33.7c0-11.43-.35-23-.69-34.12-.33-11-.68-22.33-.68-33.4,0-11.48-.44-23-.87-34.21-.42-11-.85-22.29-.85-33.31,0-12.24.51-24.79,1-36.94.5-12.38,1-25.18,1-37.9l0-5c-.19-15.14.43-22.68,6.86-26.45,1.79-1,4.36-1.58,7.33-2.22a45.35,45.35,0,0,0,13.11-4.33c12.38-6.75,22.56-22.1,24.76-37.31A51.24,51.24,0,0,0,2878.92,199.42ZM167.51,768.13c-31.33,0-54.5-19.29-56.33-46.91-1.7-25.69,12.24-44.46,37.3-50.2l2.9-.63c9.91-2.09,10-3,10.14-5.33.49-7.09-.18-14.65-.88-22.65-.55-6.31-1.12-12.83-1.12-19.36,0-10.6.63-21.21,1.24-31.46.6-9.91,1.21-20.16,1.21-30.06,0-9.72-.87-19.43-1.79-29.71s-1.89-21-1.89-31.81.76-21.31,1.48-31.59,1.42-20.09,1.42-29.93c0-12.09-.76-24.57-1.5-36.64-.77-12.42-1.56-25.27-1.56-38.09,0-10.74.61-27.5,1.19-43.71.47-12.93,1.08-29.7,1.06-37.78-.79,0-1.6,0-2.24,0a39.15,39.15,0,0,1-8.67-.65,58.33,58.33,0,0,1-22.3-10.8c-10.8-8.33-17.43-22.05-18.2-37.63s4.76-30.63,14.77-40.14c8.43-8,19.19-12.07,32-12.07,8.64,0,17.16.83,25.39,1.63,16.75,1.61,32,1.52,47.76,1.64,16.12.12,32.24.12,48.37-.29,14.95-.39,29.42-.29,45.39-1.42,12.18-.88,24.77-1.78,37.5-.21,15.59,1.92,30.35,7.29,45.36,13.09,14.7,5.7,27.48,14.43,41.48,24.41a201.64,201.64,0,0,1,36.19,33.46c17.16,20,29.82,40.18,38.69,61.66a270,270,0,0,1,18.28,67.59A546.67,546.67,0,0,1,544.78,452c.05,12.28-.87,24.48-1.76,36.28-.84,11.09-1.63,21.55-1.67,32-.11,27.58-2.78,52-8.19,74.78-6.39,27-15.23,49.62-27,69.3-13.77,23-29.38,41.87-46.41,56.11-16.06,13.45-35.42,23.75-60.92,32.43C374.48,761.14,349,765,318.49,765c-12.62,0-25.37-.37-37.7-.73-12.17-.36-24.76-.73-37.07-.73s-24.32,1.1-37.14,2.25S180.7,768.13,167.51,768.13ZM275.65,465.05c0,10.61-.64,21.22-1.25,31.48-.59,9.91-1.2,20.16-1.2,30.06,0,9.73.87,19.44,1.79,29.72s1.88,21,1.88,31.82-.75,21.32-1.48,31.61S274,639.83,274,649.67c0,6.6,1.63,7.78,3.62,8.68,2.9.61,14,1.23,29.56,1.23,13.16,0,26.35-2.94,40.33-6.05l2.34-.52c22-4.88,39.39-16.74,51.68-35.24,10.15-15.27,16.68-32.92,20.53-55.52,3.36-19.66,3.35-40,3.35-61.63v-2.38c0-9.37.86-18.8,1.7-27.93.81-8.8,1.64-17.9,1.64-26.59,0-16.25-.38-35.22-3.08-52.82a156.33,156.33,0,0,0-16.76-49.4c-8.4-15.65-21.62-26.29-32.2-33.82-14.05-10-26.64-15.14-39.61-16.17l-3.49-.29c-11.56-.93-23.5-1.9-35-1.9-1.27,0-2.9-.07-4.76-.15-11.43-.52-18.15.14-20,1.91l.26-.15a16.71,16.71,0,0,1-.54,4.09c0,9.08.23,18.16.45,27.24.23,9.59.46,19.19.46,28.78s-.21,19.17-.41,28.76c-.21,9.42-.41,18.83-.41,28.25,0,9.19.49,18.69,1,27.89C275.14,445.43,275.65,455.25,275.65,465.05Z"/></clipPath></defs><title>DestinFWB_Logo__withimage</title><g class="cls-2"><image width="2400" height="1602" transform="scale(2.57)" xlink:href="../../../../3_Kris%20Riddle%20Photography/4_Final%20Selects/10_landscape/3_Details/20190919emeraldcoast6921%20(1).jpg"/></g></svg>