<svg xmlns="http://www.w3.org/2000/svg" viewBox="0 0 1024 1024"><path d="M511.79,1022.92c-245.51,0-444.51-199.08-444.48-444.59A444.58,444.58,0,0,1,361.75,159.92a25.5,25.5,0,0,1,18.06,47.7l-.85.3c-227.31,81.6-333.14,351-205.46,570.7,73.67,126.74,253.87,211.74,398.52,188C822.76,925.4,963.34,672.38,881.74,445.07A393,393,0,0,0,628.81,202.63,25.5,25.5,0,0,1,644,153.93h0c234.44,72.85,365.44,322,292.6,556.39a444.52,444.52,0,0,1-424.77,312.61Z"/><path d="M683.94,498.15a25.48,25.48,0,0,0-36,.86h0L536.79,615.58V27.09c0-13-10.6-25-23.61-25.95a25.5,25.5,0,0,0-27.39,25.43V614.2L376,499.07a25.5,25.5,0,0,0-36.92,35.18L492.89,695.56a25.43,25.43,0,0,0,18.46,7.91h1.21A25.4,25.4,0,0,0,531,695.56L684.81,534.2A25.51,25.51,0,0,0,683.94,498.15Z"/></svg>