<svg xmlns="http://www.w3.org/2000/svg" viewBox="0 0 1024 1024"><path class="a" d="M963.66,58.63c-70.08-70.08-184-70.17-254.25-.28h0L101.84,665.92h0a25.27,25.27,0,0,0-7,13.43L8.66,985.87a25.27,25.27,0,0,0,6.46,24.72l.12.12A25.29,25.29,0,0,0,40.17,1017l302.27-89.42a25.24,25.24,0,0,0,13.92-7.1h0L963.94,312.88h0C1033.83,242.68,1033.74,128.71,963.66,58.63ZM595,244.24,614,263.17,226.31,650.83l-40.78,2.91Zm54.69,54.69,18.93,18.93L264.87,721.66l-1.6-36.27ZM314.53,883.06,69.73,955.48l69.65-247.74,74-5.28,3.48,78.8A25.28,25.28,0,0,0,241,805.41l78.8,3.47ZM336.9,759l-36.27-1.59L704.42,353.63l18.93,18.93Zm31.64,77.74L371.45,796,759.11,408.32l18.94,18.93ZM813.81,391.49l-18.94-18.93h0L704.42,282.1h0l-6.9-6.9L630.8,208.48l38.09-38.09,18.93,18.93,90.45,90.46,18.93,18.93L833,334.47l18.93,18.93Zm73.84-73.85-183-183,40.24-40.24c50.45-50.46,132.55-50.46,183,0s50.45,132.55,0,183Z"/></svg>