<svg xmlns="http://www.w3.org/2000/svg" viewBox="0 0 1024 1024"><path d="M567.24,258.5H457.76A45.76,45.76,0,0,0,412,304.25v67.49a45.76,45.76,0,0,0,45.76,45.76H567.24A45.76,45.76,0,0,0,613,371.74h0V304.25A45.76,45.76,0,0,0,567.24,258.5ZM564,368.5H460v-62H564Z"/><path d="M274.24,259.5H164.76A45.76,45.76,0,0,0,119,305.25v67.49a45.76,45.76,0,0,0,45.76,45.76H274.24A45.76,45.76,0,0,0,320,372.74h0V305.25A45.76,45.76,0,0,0,274.24,259.5ZM271,369.5H167v-62H271Z"/><path d="M863.24,259.5H753.76A45.76,45.76,0,0,0,708,305.25v67.49a45.76,45.76,0,0,0,45.76,45.76H863.24A45.76,45.76,0,0,0,909,372.74h0V305.25A45.76,45.76,0,0,0,863.24,259.5ZM860,369.5H756v-62H860Z"/><path d="M567.24,473.5H457.76A45.76,45.76,0,0,0,412,519.25v67.49a45.76,45.76,0,0,0,45.76,45.76H567.24A45.76,45.76,0,0,0,613,586.74h0V519.25A45.76,45.76,0,0,0,567.24,473.5ZM564,583.5H460v-62H564Z"/><path d="M274.24,474.5H164.76A45.76,45.76,0,0,0,119,520.25v67.49a45.76,45.76,0,0,0,45.76,45.76H274.24A45.76,45.76,0,0,0,320,587.74h0V520.25A45.76,45.76,0,0,0,274.24,474.5ZM271,584.5H167v-62H271Z"/><path d="M863.24,474.5H753.76A45.76,45.76,0,0,0,708,520.25v67.49a45.76,45.76,0,0,0,45.76,45.76H863.24A45.76,45.76,0,0,0,909,587.74h0V520.25A45.76,45.76,0,0,0,863.24,474.5ZM860,584.5H756v-62H860Z"/><path d="M996.87,157.5H27.13A27.13,27.13,0,0,0,0,184.63H0V839.37A27.13,27.13,0,0,0,27.13,866.5H996.87A27.13,27.13,0,0,0,1024,839.37h0V184.63a27.13,27.13,0,0,0-27.13-27.13ZM975,818.5H49v-70H975Zm0-119H49v-493H975Z"/></svg>